<svg width="203" height="92" viewBox="0 0 203 92" fill="none" xmlns="http://www.w3.org/2000/svg">
<path d="M54.473 31.8656C54.473 36.0951 51.8733 43.4869 46.6738 54.041C48.1871 53.9246 49.3318 53.8664 50.1078 53.8664C50.8839 53.8664 51.6211 54.0992 52.3195 54.5648C53.018 54.9917 53.6582 55.5349 54.2402 56.1945C55.5595 57.7466 56.2191 58.9689 56.2191 59.8613C56.2191 60.7538 56.0251 61.3552 55.6371 61.6656C55.2491 61.976 54.5118 62.0536 53.4254 61.8984C51.5629 61.6268 49.7392 61.491 47.9543 61.491H44.4621C43.9577 61.491 43.4339 61.5104 42.8906 61.5492C38.3896 69.8141 35.0138 75.8284 32.7633 79.5922C27.9906 87.5466 24.0134 91.5238 20.8316 91.5238C19.2408 91.5238 18.4453 90.806 18.4453 89.3703C18.4453 87.857 19.1437 85.9557 20.5406 83.6664C22.1315 80.7174 23.7806 77.3999 25.4879 73.7137L30.5516 62.4223C23.412 63.0431 18.7557 63.3535 16.5828 63.3535C12.431 63.3535 9.61784 63.1401 8.14336 62.7133C6.70768 62.2865 5.58242 61.7044 4.76758 60.9672C3.99154 60.2299 3.2931 59.3763 2.67227 58.4063C1.3918 56.3497 0.770963 54.7007 0.809765 53.459C0.88737 52.1785 1.35299 50.6846 2.20664 48.9773L9.88945 34.7758C16.059 22.9411 19.5706 12.193 20.4242 2.53125C20.5794 1.13438 21.6659 0.43594 23.6836 0.43594C25.8565 0.43594 27.6414 0.979169 29.0383 2.06563C31.6768 4.16094 32.9961 6.35326 32.9961 8.64258C32.9961 10.8931 32.6469 13.26 31.9484 15.7434C31.25 18.1879 30.3187 20.7682 29.1547 23.4844C27.9906 26.1617 26.652 28.9361 25.1387 31.8074C23.6254 34.64 22.0733 37.4143 20.4824 40.1305C16.253 46.882 13.1876 51.6353 11.2863 54.3902C12.7996 55.2439 15.2829 55.6707 18.7363 55.6707C23.8194 55.6707 28.7667 55.4961 33.5781 55.1469L36.1973 48.3953C38.7582 41.8766 40.3103 37.1621 40.8535 34.252C41.746 30.9926 42.3668 28.5286 42.716 26.8602C43.0652 25.1529 43.5697 24.2992 44.2293 24.2992C46.7126 24.2992 49.0602 25.1335 51.2719 26.802C53.406 28.4316 54.473 30.1195 54.473 31.8656ZM88.1098 91.582C82.0955 91.582 77.5168 89.7195 74.3739 85.9945C71.2697 82.2307 69.7176 76.7402 69.7176 69.523C69.7176 69.523 69.7176 68.8828 69.7176 67.6023C69.7176 62.9073 70.513 57.4944 72.1039 51.3637C73.7336 45.2329 75.6349 39.7619 77.8078 34.9504C80.0196 30.1001 82.5805 25.5797 85.4907 21.3891C88.4396 17.1984 91.6602 13.551 95.1524 10.4469C102.68 3.81172 110.46 0.494143 118.492 0.494143C126.989 0.494143 132.499 4.64597 135.022 12.9496C135.875 15.7434 136.302 18.4013 136.302 20.9234C136.302 23.4456 136.166 26.3363 135.895 29.5957C135.662 32.8163 134.866 37.0457 133.508 42.284C132.15 47.4835 130.365 52.4889 128.154 57.3004C125.942 62.073 123.381 66.5547 120.471 70.7453C117.599 74.9359 114.437 78.5833 110.984 81.6875C103.572 88.2839 95.9478 91.582 88.1098 91.582ZM124.72 17.7805C124.72 11.3005 122.256 8.06055 117.328 8.06055C112.672 8.06055 107.53 11.6109 101.904 18.7117C96.6657 25.3857 92.087 33.6893 88.168 43.6227C84.0938 53.944 81.7463 63.5087 81.1254 72.3168C80.8926 75.9642 81.4164 78.8355 82.6969 80.9309C83.9774 82.9874 85.7235 84.0156 87.9352 84.0156C90.1857 84.0156 92.3004 83.453 94.2793 82.3277C96.2582 81.1637 98.2371 79.5728 100.216 77.5551C102.234 75.5374 104.193 73.1704 106.095 70.4543C107.996 67.6993 109.82 64.731 111.566 61.5492C113.312 58.3286 114.922 54.9529 116.397 51.4219C117.91 47.8909 119.248 44.3211 120.413 40.7125C123.284 31.6716 124.72 24.4156 124.72 18.9445V17.7805ZM201.252 31.8656C201.252 36.0951 198.652 43.4869 193.453 54.041C194.966 53.9246 196.111 53.8664 196.887 53.8664C197.663 53.8664 198.4 54.0992 199.098 54.5648C199.797 54.9917 200.437 55.5349 201.019 56.1945C202.338 57.7466 202.998 58.9689 202.998 59.8613C202.998 60.7538 202.804 61.3552 202.416 61.6656C202.028 61.976 201.291 62.0536 200.204 61.8984C198.342 61.6268 196.518 61.491 194.733 61.491H191.241C190.737 61.491 190.213 61.5104 189.67 61.5492C185.169 69.8141 181.793 75.8284 179.542 79.5922C174.77 87.5466 170.792 91.5238 167.611 91.5238C166.02 91.5238 165.224 90.806 165.224 89.3703C165.224 87.857 165.923 85.9557 167.32 83.6664C168.91 80.7174 170.56 77.3999 172.267 73.7137L177.331 62.4223C170.191 63.0431 165.535 63.3535 163.362 63.3535C159.21 63.3535 156.397 63.1401 154.922 62.7133C153.487 62.2865 152.361 61.7044 151.547 60.9672C150.77 60.2299 150.072 59.3763 149.451 58.4063C148.171 56.3497 147.55 54.7007 147.589 53.459C147.666 52.1785 148.132 50.6846 148.986 48.9773L156.668 34.7758C162.838 22.9411 166.35 12.193 167.203 2.53125C167.358 1.13438 168.445 0.43594 170.463 0.43594C172.635 0.43594 174.42 0.979169 175.817 2.06563C178.456 4.16094 179.775 6.35326 179.775 8.64258C179.775 10.8931 179.426 13.26 178.727 15.7434C178.029 18.1879 177.098 20.7682 175.934 23.4844C174.77 26.1617 173.431 28.9361 171.918 31.8074C170.404 34.64 168.852 37.4143 167.261 40.1305C163.032 46.882 159.967 51.6353 158.065 54.3902C159.579 55.2439 162.062 55.6707 165.515 55.6707C170.598 55.6707 175.546 55.4961 180.357 55.1469L182.976 48.3953C185.537 41.8766 187.089 37.1621 187.632 34.252C188.525 30.9926 189.146 28.5286 189.495 26.8602C189.844 25.1529 190.349 24.2992 191.008 24.2992C193.492 24.2992 195.839 25.1335 198.051 26.802C200.185 28.4316 201.252 30.1195 201.252 31.8656Z" fill="#5CA182"/>
</svg>
