<svg width="292" height="217" viewBox="0 0 292 217" fill="none" xmlns="http://www.w3.org/2000/svg">
<path d="M137.89 132.015C131.302 120.345 119.875 116.472 116.121 115.39C115.097 112.367 114.786 109.12 115.218 105.938C116.069 99.6859 117.457 89.5239 117.593 88.7812L89.2062 100.595L60.335 110.972C60.8831 111.456 68.0328 118.304 72.4283 122.521C74.6663 124.668 76.3734 127.374 77.3975 130.398C75.1629 133.801 68.7059 144.605 70.6333 158.08C72.4539 170.807 80.7465 178.862 86.2684 184.241C90.2549 188.111 94.7124 191.386 99.5197 193.978C101.638 195.603 104.056 196.725 106.612 197.27C109.168 197.814 111.803 197.768 114.342 197.135C115.209 196.919 116.877 196.462 118.44 195.946C119.13 195.718 120.006 195.426 121.009 195.049L121.175 194.983L121.341 194.92C122.336 194.522 123.184 194.147 123.851 193.849C125.357 193.174 126.915 192.381 127.71 191.953C130.037 190.699 132.088 188.928 133.724 186.759C135.36 184.589 136.544 182.071 137.197 179.373C139.336 174.089 140.798 168.52 141.541 162.817C142.568 154.912 144.11 143.037 137.89 132.015Z" fill="#D6B49A"/>
<path d="M110.184 197.889C106.315 197.888 102.544 196.592 99.3975 194.184C94.5793 191.583 90.1113 188.298 86.1146 184.418C80.5897 179.046 72.2414 170.928 70.4088 158.116C68.6335 145.702 73.8316 135.437 77.1429 130.36C76.1257 127.423 74.4559 124.794 72.2776 122.7C67.9995 118.594 60.7399 111.634 60.1918 111.159C60.1609 111.132 60.1373 111.096 60.1233 111.055C60.1093 111.015 60.1054 110.971 60.112 110.929C60.1194 110.886 60.1372 110.846 60.1637 110.814C60.1901 110.781 60.2242 110.756 60.2625 110.742L89.1353 100.362L117.516 88.5573C117.553 88.5417 117.594 88.5372 117.634 88.5443C117.673 88.5513 117.71 88.5696 117.741 88.5973C117.772 88.6249 117.795 88.6609 117.808 88.7015C117.822 88.7421 117.825 88.7857 117.817 88.8279C117.683 89.5689 116.273 99.8872 115.445 105.973C115.026 109.074 115.318 112.237 116.294 115.19C121.877 116.819 132.014 121.139 138.082 131.891C144.345 142.986 142.793 154.941 141.766 162.852C141.019 168.57 139.555 174.154 137.412 179.453C136.748 182.182 135.548 184.727 133.891 186.92C132.235 189.113 130.161 190.903 127.807 192.17C126.941 192.636 125.406 193.414 123.931 194.073C123.236 194.384 122.416 194.746 121.447 195.134L121.413 195.152L121.081 195.279L121.047 195.291C120.067 195.656 119.22 195.935 118.502 196.177C116.974 196.683 115.331 197.143 114.388 197.372C113.01 197.715 111.599 197.889 110.184 197.889ZM60.7836 111.066C62.3165 112.5 68.6832 118.604 72.5802 122.343C74.8439 124.518 76.5718 127.256 77.6112 130.315C77.6237 130.352 77.6277 130.391 77.623 130.429C77.6183 130.468 77.6049 130.504 77.5841 130.536C74.315 135.517 69.0942 145.713 70.8576 158.043C72.6646 170.688 80.9466 178.736 86.4218 184.062C90.3924 187.916 94.8316 191.179 99.6189 193.762L99.649 193.781C101.741 195.386 104.129 196.494 106.653 197.032C109.178 197.57 111.78 197.525 114.287 196.9C115.224 196.666 116.855 196.217 118.373 195.714C119.094 195.478 119.946 195.191 120.932 194.822L120.963 194.812L121.231 194.709L121.259 194.695C122.235 194.305 123.066 193.939 123.76 193.627C125.224 192.972 126.746 192.201 127.606 191.738C129.906 190.501 131.932 188.752 133.548 186.609C135.165 184.466 136.336 181.979 136.982 179.313C136.985 179.301 136.989 179.289 136.994 179.278C139.125 174.014 140.581 168.467 141.321 162.786C142.339 154.942 143.881 143.089 137.698 132.141C131.67 121.461 121.554 117.205 116.063 115.623C116.028 115.612 115.997 115.593 115.97 115.567C115.944 115.54 115.924 115.508 115.912 115.472C114.878 112.411 114.565 109.124 115.001 105.903C115.754 100.362 116.99 91.312 117.311 89.1614L89.2904 100.818L60.7836 111.066Z" fill="black"/>
<path d="M90.5195 104.488C106.332 98.3613 118.439 91.2935 117.562 88.7019C116.684 86.1103 103.155 88.9763 87.3422 95.1033C71.5299 101.23 59.4227 108.298 60.3001 110.89C61.1775 113.481 74.7072 110.615 90.5195 104.488Z" fill="#020202"/>
<path d="M63.2063 112.076C61.577 112.076 60.3678 111.778 60.0923 110.966C59.4899 109.194 63.768 106.26 67.4588 104.105C72.5786 101.118 79.6123 97.8379 87.2695 94.8689C94.9266 91.8999 102.295 89.5994 108.012 88.3879C112.138 87.5148 117.18 86.843 117.778 88.6103C118.375 90.3775 114.102 93.3175 110.411 95.473C105.291 98.4597 98.259 101.74 90.6004 104.707C82.9417 107.675 75.5767 109.977 69.8576 111.19C67.6259 111.662 65.1263 112.076 63.2063 112.076ZM114.676 87.9772C113.301 87.9772 111.227 88.1995 108.101 88.8616C102.403 90.0698 95.0606 92.3638 87.4231 95.3232C79.7855 98.2825 72.7729 101.553 67.6726 104.528C60.4808 108.726 60.3754 110.392 60.5139 110.801C60.6524 111.211 61.7306 112.412 69.7672 110.714C75.4638 109.508 82.8077 107.212 90.4438 104.253C98.0798 101.293 105.094 98.0248 110.193 95.0477C117.383 90.8495 117.488 89.1854 117.35 88.7746C117.269 88.5297 116.833 87.9772 114.676 87.9772Z" fill="black"/>
<path d="M120.678 201.297L120.664 214.639C120.664 215.636 121.667 216.447 122.905 216.448H122.95C124.188 216.448 125.195 215.643 125.195 214.644L125.208 201.45C125.208 201.365 124.161 201.289 122.89 201.289H120.678" fill="#818181"/>
<path d="M122.948 216.69H122.9C121.545 216.69 120.434 215.769 120.434 214.639L120.447 201.056H122.885C123.502 201.056 124.09 201.072 124.541 201.101C125.162 201.143 125.436 201.173 125.436 201.452L125.422 214.646C125.414 214.937 125.342 215.222 125.211 215.478C125.08 215.734 124.895 215.953 124.669 216.117C124.168 216.501 123.565 216.702 122.948 216.69ZM120.899 201.547L120.885 214.647C120.885 215.511 121.789 216.213 122.9 216.215H122.948C123.467 216.225 123.974 216.055 124.395 215.732C124.563 215.611 124.702 215.451 124.801 215.262C124.899 215.074 124.955 214.863 124.963 214.647L124.977 201.631C124.286 201.56 123.592 201.53 122.899 201.541H120.899V201.547Z" fill="#191818"/>
<path d="M239.639 201.297L239.625 214.639C239.625 215.636 240.628 216.447 241.866 216.448H241.911C243.149 216.448 244.155 215.643 244.155 214.644L244.169 201.45C244.169 201.365 243.115 201.289 241.851 201.289H239.639" fill="#818181"/>
<path d="M241.909 216.69H241.861C240.505 216.69 239.394 215.769 239.394 214.639L239.408 201.056H241.846C242.469 201.056 243.05 201.072 243.494 201.101C244.115 201.143 244.389 201.173 244.389 201.452L244.375 214.646C244.367 214.937 244.295 215.222 244.164 215.478C244.033 215.734 243.848 215.953 243.622 216.117C243.123 216.499 242.523 216.7 241.909 216.69ZM239.859 201.547L239.846 214.647C239.846 215.511 240.749 216.213 241.861 216.215H241.909C242.427 216.225 242.935 216.055 243.356 215.732C243.524 215.611 243.662 215.451 243.761 215.262C243.86 215.074 243.915 214.863 243.924 214.647L243.937 201.631C243.247 201.56 242.553 201.53 241.859 201.541H239.859V201.547Z" fill="#191818"/>
<path d="M251.158 197.995H89.9962C89.5669 197.995 89.1551 198.178 88.8516 198.502C88.548 198.827 88.3774 199.268 88.3774 199.727C88.3774 200.186 88.548 200.627 88.8516 200.951C89.1551 201.276 89.5669 201.459 89.9962 201.459H249.576C249.792 201.459 250.006 201.412 250.204 201.323C250.403 201.233 250.583 201.102 250.734 200.937C250.884 200.772 251.003 200.576 251.082 200.361C251.161 200.147 251.199 199.917 251.194 199.687L251.158 197.995Z" fill="#DCDBDA"/>
<path d="M249.577 201.7H89.9965C89.5073 201.7 89.0381 201.492 88.6921 201.122C88.3462 200.752 88.1519 200.25 88.1519 199.726C88.1519 199.203 88.3462 198.701 88.6921 198.331C89.0381 197.961 89.5073 197.753 89.9965 197.753H251.384L251.424 199.686C251.43 199.949 251.386 200.21 251.295 200.455C251.204 200.699 251.069 200.922 250.897 201.109C250.725 201.297 250.519 201.446 250.293 201.547C250.066 201.649 249.822 201.701 249.577 201.7ZM89.9965 198.236C89.6271 198.236 89.2728 198.393 89.0116 198.673C88.7504 198.952 88.6036 199.331 88.6036 199.726C88.6036 200.122 88.7504 200.501 89.0116 200.78C89.2728 201.06 89.6271 201.217 89.9965 201.217H249.577C249.762 201.216 249.946 201.177 250.117 201.099C250.288 201.022 250.442 200.91 250.572 200.768C250.702 200.626 250.803 200.457 250.871 200.273C250.939 200.088 250.972 199.891 250.968 199.693L250.937 198.243L89.9965 198.236Z" fill="black"/>
<path d="M81.9389 107.941C81.9389 107.941 76.1234 131.703 77.0932 141.657C77.6714 147.599 77.4907 157.445 77.2437 164.437C77.1674 166.638 76.2898 168.72 74.7983 170.238C73.3068 171.757 71.3195 172.592 69.2607 172.564C67.2019 172.537 65.2346 171.65 63.7788 170.092C62.323 168.535 61.494 166.43 61.4687 164.227C61.428 160.683 61.0501 157.986 61.3934 155.979C63.4518 143.927 60.2986 143.736 62.1583 132.739C62.4766 131.549 62.8059 130.352 63.1462 129.148C64.9261 122.865 66.8761 117.026 68.9436 111.329C71.1632 111.105 73.6418 110.4 76.3116 109.762C78.3641 109.272 80.2418 108.541 81.9389 107.941Z" fill="#4EA7F1"/>
<path d="M69.3645 172.804C67.2319 172.795 65.1873 171.893 63.6698 170.29C62.1523 168.687 61.2828 166.511 61.2481 164.23C61.2346 162.977 61.1759 161.813 61.1247 160.776C61.0313 158.888 60.95 157.256 61.1758 155.943C62.2299 149.804 61.9122 146.741 61.6095 143.78C61.3084 140.86 61.0283 138.102 61.9408 132.703V132.681C62.2631 131.479 62.5958 130.264 62.9301 129.085C64.5489 123.368 66.3935 117.7 68.7336 111.248L68.7848 111.11L68.9233 111.095C70.649 110.923 72.5479 110.451 74.5582 109.951C75.1168 109.813 75.6845 109.671 76.2628 109.534C77.8346 109.132 79.3853 108.641 80.9082 108.062C81.2325 107.944 81.5512 107.83 81.8644 107.72L82.2575 107.58L82.1536 108.01C82.0948 108.247 76.3576 131.841 77.3123 141.641C77.8875 147.555 77.7159 157.311 77.4704 164.452C77.3977 166.698 76.5111 168.825 74.9982 170.384C73.4853 171.943 71.4649 172.81 69.3645 172.804ZM62.3835 132.793C61.48 138.11 61.7631 140.837 62.0583 143.721C62.3594 146.715 62.6817 149.813 61.6201 156.022C61.4047 157.287 61.4845 158.893 61.5764 160.75C61.6276 161.786 61.6863 162.96 61.6999 164.223C61.7254 166.362 62.5312 168.406 63.9452 169.918C65.3593 171.43 67.2698 172.292 69.269 172.318C71.2683 172.344 73.1981 171.534 74.6467 170.06C76.0954 168.586 76.9482 166.564 77.0232 164.426C77.2686 157.3 77.4403 147.569 76.8726 141.683C75.9827 132.536 80.845 111.579 81.6235 108.31L81.0558 108.505C79.5181 109.089 77.9523 109.585 76.3651 109.99C75.7899 110.129 75.2227 110.268 74.6636 110.407C72.6924 110.891 70.8267 111.361 69.1086 111.548C66.7956 117.929 64.9705 123.546 63.3683 129.211C63.034 130.396 62.7028 131.598 62.3835 132.793Z" fill="black"/>
<path d="M84.654 158.666C83.3108 158.666 82.3275 156.583 81.9435 155.767C79.2947 150.156 83.2987 140.367 84.8527 136.893C86.3375 140.469 90.0207 150.177 87.3735 155.767C86.9729 156.596 85.9926 158.666 84.654 158.666Z" fill="#4EA7F1"/>
<path d="M84.6539 158.908C83.1706 158.908 82.1662 156.779 81.7386 155.871C79.2359 150.571 82.4915 141.636 84.6433 136.784L84.8541 136.301L85.0544 136.784C87.0707 141.638 90.0779 150.569 87.5691 155.866C87.14 156.779 86.1326 158.908 84.6539 158.908ZM84.8391 137.47C82.7309 142.334 79.8036 150.704 82.1391 155.653C82.4975 156.411 83.4477 158.424 84.6523 158.424C85.857 158.424 86.8057 156.411 87.1656 155.653C89.5071 150.703 86.8147 142.335 84.8391 137.47Z" fill="black"/>
<path d="M264.752 133.636C248.075 118.198 227.407 121.63 224.427 122.177C195.738 127.076 172.533 138.287 168.981 152.51C168.251 155.447 167.663 158.422 167.219 161.424C160.119 160.135 148.202 159.504 141.262 167.581L141.227 167.623C139.256 169.93 140.638 173.658 143.545 173.981C145.285 174.175 147.377 174.362 149.735 174.484C154.631 174.739 165.108 182.861 171.669 188.259C175.762 193.261 181.539 196.327 187.738 196.786H187.837C189.658 198.093 194.463 201.154 201.114 201.044C204.623 200.979 208.071 200.057 211.196 198.349L235.346 197.995C246.525 201.466 255.502 201.104 260.972 200.371C268.834 199.319 271.786 197.218 273.106 196.057C277.669 192.029 279.33 185.756 280.504 179.475C282.917 166.569 279.032 146.856 264.752 133.636Z" fill="#F8F3ED"/>
<path d="M200.773 201.297C194.691 201.297 190.053 198.662 187.773 197.038H187.724C181.472 196.575 175.646 193.486 171.515 188.445C160.673 179.535 153.34 174.913 149.726 174.734C147.632 174.625 145.545 174.455 143.521 174.23C142.814 174.153 142.14 173.866 141.577 173.401C141.014 172.937 140.582 172.313 140.332 171.601C140.077 170.908 140.01 170.153 140.139 169.421C140.268 168.69 140.587 168.012 141.061 167.467L141.096 167.427C144.202 163.812 148.593 161.569 154.151 160.757C158.952 160.057 163.766 160.575 167.034 161.154C167.473 158.225 168.05 155.321 168.764 152.454C170.474 145.605 176.842 139.098 187.179 133.638C196.948 128.483 209.816 124.435 224.392 121.944C226.535 121.551 232.298 120.734 239.479 121.678C249.298 122.967 257.85 126.935 264.9 133.459C271.532 139.633 276.446 147.64 279.103 156.604C281.449 164.435 282.026 172.577 280.727 179.527C279.629 185.399 278.055 192.017 273.25 196.247C270.791 198.412 266.784 199.841 261 200.616C252.647 201.734 244.006 200.938 235.317 198.241L211.252 198.594C208.108 200.3 204.644 201.222 201.119 201.291C201.004 201.297 200.888 201.297 200.773 201.297ZM187.898 196.552L187.963 196.593C190.222 198.204 194.932 200.916 201.112 200.811C204.585 200.742 207.999 199.83 211.094 198.142L211.141 198.116L235.385 197.761L235.418 197.771C244.058 200.453 252.65 201.251 260.952 200.139C266.649 199.377 270.58 197.984 272.97 195.878C277.662 191.748 279.209 185.225 280.291 179.435C282.678 166.668 278.786 146.951 264.613 133.828C248.5 118.907 228.348 121.711 224.475 122.424C209.939 124.907 197.115 128.936 187.386 134.075C177.171 139.472 170.884 145.87 169.206 152.582C168.478 155.511 167.892 158.478 167.452 161.473L167.416 161.714L167.19 161.672C160.564 160.466 148.399 159.652 141.44 167.754L141.406 167.794C140.989 168.274 140.707 168.87 140.594 169.514C140.481 170.158 140.54 170.823 140.766 171.432C140.986 172.058 141.364 172.606 141.859 173.016C142.353 173.425 142.945 173.679 143.567 173.75C145.583 173.974 147.661 174.143 149.741 174.251C153.451 174.444 160.873 179.095 171.801 188.076L171.834 188.108C175.885 193.06 181.602 196.096 187.737 196.555L187.898 196.552Z" fill="black"/>
<path d="M167.058 161.183C165.645 156.745 163.495 148.331 163.311 140.377C163.175 134.47 163.811 128.571 165.201 122.851C161.248 114.161 159.551 104.494 160.289 94.8624C160.328 94.3947 160.478 93.9455 160.725 93.5575C160.971 93.1694 161.307 92.8554 161.7 92.6455C162.092 92.4355 162.528 92.3366 162.967 92.3581C163.405 92.3795 163.831 92.5207 164.204 92.7681L184.096 105.996C191.499 103.844 199.275 103.613 206.778 105.322L224.82 89.5349C225.102 89.2867 225.442 89.1232 225.803 89.0612C226.164 88.9991 226.534 89.0407 226.876 89.1818C227.217 89.3228 227.517 89.5582 227.746 89.8639C227.974 90.1696 228.123 90.5347 228.176 90.9219C229.644 101.853 228.791 112.997 225.681 123.526C227.064 128.057 227.432 132.873 226.756 137.584" fill="#F8F3ED"/>
<path d="M166.844 161.261C166.016 158.659 163.296 149.464 163.079 140.384C162.942 134.484 163.574 128.592 164.956 122.878C161.011 114.17 159.32 104.491 160.059 94.847C160.095 94.338 160.254 93.8476 160.52 93.4241C160.786 93.0005 161.151 92.6581 161.578 92.4305C162.007 92.1969 162.486 92.0861 162.967 92.109C163.449 92.1319 163.916 92.2876 164.325 92.561L184.134 105.734C191.508 103.608 199.248 103.377 206.721 105.061L224.678 89.3423C224.992 89.0667 225.369 88.8851 225.769 88.8162C226.17 88.7473 226.581 88.7936 226.96 88.9502C227.338 89.1069 227.671 89.3683 227.924 89.7078C228.178 90.0473 228.342 90.4527 228.401 90.8824C229.871 101.823 229.023 112.978 225.919 123.521C227.293 128.067 227.654 132.893 226.973 137.615L226.521 137.541C227.191 132.867 226.825 128.091 225.454 123.596L225.431 123.522L225.454 123.448C228.554 112.953 229.403 101.845 227.94 90.9501C227.892 90.6054 227.76 90.2805 227.556 90.0085C227.353 89.7365 227.085 89.5271 226.781 89.4017C226.478 89.2763 226.148 89.2393 225.826 89.2945C225.505 89.3497 225.203 89.4952 224.951 89.7161L206.825 105.583L206.72 105.558C199.252 103.857 191.512 104.087 184.143 106.229L184.048 106.256L164.073 92.9718C163.73 92.7424 163.338 92.6118 162.934 92.5926C162.53 92.5734 162.128 92.6663 161.768 92.8623C161.411 93.0522 161.107 93.3376 160.884 93.6908C160.661 94.0439 160.527 94.4528 160.495 94.8776C159.759 104.469 161.448 114.095 165.385 122.747L165.421 122.828L165.4 122.915C164.015 128.612 163.381 134.488 163.518 140.373C163.727 149.385 166.428 158.522 167.252 161.108L166.844 161.261Z" fill="black"/>
<path d="M64.1023 189.777H64.0587C64.0587 189.777 62.7787 189.76 61.5831 188.532C60.6419 187.566 61.4551 183.308 64.2936 178.37C66.718 183.387 67.3173 187.574 66.4258 188.532C65.2814 189.771 64.1023 189.777 64.1023 189.777Z" fill="#4EA7F1"/>
<path d="M64.1034 190.02H64.0583C64.001 190.02 62.6744 189.986 61.4291 188.708C60.2681 187.518 61.4697 182.824 64.1064 178.237L64.3158 177.873L64.4995 178.253C66.7582 182.936 67.6813 187.523 66.5926 188.697C65.3954 189.986 64.1652 190.013 64.1064 190.013L64.1034 190.02ZM64.2781 178.865C61.5074 183.819 61.0044 187.605 61.7378 188.359C62.8566 189.507 64.0477 189.536 64.0598 189.536H64.1004C64.123 189.536 65.2132 189.501 66.2688 188.364C66.9675 187.603 66.6453 183.914 64.2781 178.865Z" fill="black"/>
<path d="M281.123 171.252C283.354 172.351 286.882 174.54 289.255 178.662C294.739 188.191 290.652 202.144 283.025 209.485C277.49 214.814 271.116 215.652 266.101 216.343C263.162 216.747 249.537 218.563 240.18 209.485C238.287 207.649 233.855 203.346 234.509 198.026C234.848 195.288 236.586 191.632 239.549 190.616C245.228 188.66 248.626 198.698 259.289 199.932C260.825 200.109 267.402 200.67 272.54 196.227C273.382 195.499 274.77 194.133 276.455 191.072C278.187 187.926 281.113 181.404 281.123 171.252Z" fill="#333333"/>
<path d="M260.205 217C252.016 217 244.987 214.475 240.027 209.665C238.107 207.803 233.61 203.44 234.283 197.995C234.658 194.973 236.563 191.39 239.478 190.382C242.34 189.397 244.567 191.269 247.392 193.636C250.275 196.052 253.867 199.057 259.312 199.688C261.662 199.96 267.642 200.149 272.397 196.035C273.265 195.284 274.609 193.94 276.26 190.945C279.285 185.454 280.889 178.644 280.896 171.253V170.876L281.217 171.037C284.831 172.822 287.608 175.346 289.446 178.539C292.03 183.029 292.679 188.859 291.274 194.955C289.973 200.605 287.021 205.966 283.175 209.67C277.632 215.005 271.321 215.872 266.251 216.57L266.129 216.586C264.164 216.859 262.186 216.997 260.205 217ZM241.002 190.604C240.532 190.605 240.065 190.685 239.619 190.842C236.881 191.785 235.089 195.192 234.734 198.058C234.091 203.252 238.464 207.495 240.331 209.307C246.354 215.145 255.491 217.559 266.08 216.104L266.202 216.086C271.211 215.398 277.443 214.541 282.881 209.306C290.26 202.201 294.512 188.244 289.07 178.791C287.334 175.773 284.739 173.367 281.356 171.633C281.294 178.965 279.672 185.719 276.657 191.19C274.971 194.251 273.586 195.637 272.69 196.412C267.803 200.639 261.679 200.439 259.273 200.168C253.701 199.524 250.051 196.463 247.124 194.018C244.887 192.149 243.041 190.604 241.002 190.604Z" fill="#191818"/>
<path d="M211.253 198.558C211.202 198.558 211.152 198.539 211.112 198.504C211.072 198.47 211.044 198.422 211.033 198.368C211.022 198.314 211.028 198.258 211.051 198.209C211.074 198.16 211.112 198.12 211.158 198.097C211.261 198.046 221.479 192.871 223.835 183.115C223.841 183.083 223.853 183.052 223.87 183.025C223.888 182.998 223.91 182.975 223.936 182.958C223.962 182.94 223.991 182.929 224.021 182.924C224.052 182.919 224.083 182.92 224.113 182.929C224.142 182.937 224.17 182.951 224.194 182.972C224.219 182.992 224.239 183.017 224.254 183.046C224.269 183.074 224.278 183.106 224.281 183.139C224.284 183.172 224.281 183.205 224.271 183.236C223.012 188.457 219.564 192.341 216.893 194.674C215.186 196.179 213.326 197.473 211.348 198.532C211.319 198.548 211.286 198.557 211.253 198.558Z" fill="#191818"/>
<path d="M206.786 105.326L224.827 89.5388C225.11 89.2906 225.449 89.1271 225.81 89.0651C226.172 89.003 226.542 89.0447 226.883 89.1857C227.224 89.3267 227.525 89.5621 227.753 89.8678C227.982 90.1735 228.13 90.5386 228.183 90.9258C228.671 94.5634 228.805 98.2493 228.839 103.975C228.872 109.7 226.989 114.949 225.709 123.567C221.274 115.577 214.675 109.216 206.786 105.326Z" fill="#333333"/>
<path d="M225.834 124.263L225.515 123.692C221.103 115.743 214.539 109.415 206.692 105.546L206.365 105.384L224.685 89.3472C224.999 89.0715 225.375 88.89 225.776 88.8211C226.177 88.7522 226.588 88.7984 226.966 88.9551C227.345 89.1118 227.678 89.3732 227.931 89.7127C228.184 90.0522 228.349 90.4575 228.408 90.8873C228.917 94.6811 229.034 98.5587 229.066 103.976C229.087 107.484 228.382 110.868 227.56 114.784C227.03 117.333 226.429 120.221 225.926 123.606L225.834 124.263ZM207.207 105.27C214.804 109.1 221.189 115.221 225.578 122.881C226.061 119.761 226.622 117.072 227.119 114.68C227.96 110.631 228.624 107.43 228.606 103.98C228.575 98.5829 228.456 94.7214 227.953 90.955C227.905 90.6103 227.772 90.2854 227.569 90.0134C227.365 89.7414 227.098 89.532 226.794 89.4066C226.49 89.2811 226.161 89.2442 225.839 89.2994C225.518 89.3546 225.216 89.5001 224.964 89.721L207.207 105.27Z" fill="#191818"/>
<path d="M188.365 197.27C188.309 197.271 188.256 197.25 188.214 197.211C187.792 196.818 186.808 195.735 186.786 194.185C186.768 192.821 187.497 191.872 187.737 191.56C188.956 189.97 190.759 189.825 192.847 189.655C194.025 189.56 195.361 189.452 196.738 189.063C199.164 188.376 201.461 186.88 203.563 184.615C203.606 184.572 203.662 184.549 203.721 184.55C203.779 184.551 203.835 184.576 203.877 184.621C203.918 184.665 203.942 184.725 203.943 184.787C203.944 184.85 203.922 184.91 203.882 184.956C201.724 187.282 199.365 188.823 196.853 189.53C195.436 189.931 194.079 190.04 192.882 190.137C190.815 190.298 189.182 190.437 188.086 191.866C187.872 192.144 187.223 192.993 187.238 194.179C187.256 195.532 188.142 196.496 188.512 196.847C188.557 196.889 188.584 196.949 188.588 197.013C188.592 197.077 188.572 197.14 188.533 197.188C188.512 197.214 188.486 197.235 188.457 197.249C188.428 197.263 188.397 197.27 188.365 197.27Z" fill="#191818"/>
<path d="M194.99 147.893C207.715 147.893 218.03 139.454 218.03 129.045C218.03 118.635 207.715 110.196 194.99 110.196C182.266 110.196 171.951 118.635 171.951 129.045C171.951 139.454 182.266 147.893 194.99 147.893Z" fill="#333333"/>
<path d="M194.991 148.135C182.162 148.135 171.726 139.571 171.726 129.045C171.726 118.519 182.162 109.955 194.991 109.955C207.819 109.955 218.256 118.519 218.256 129.045C218.256 139.571 207.819 148.135 194.991 148.135ZM194.991 110.438C182.417 110.438 172.177 118.785 172.177 129.045C172.177 139.305 182.417 147.652 194.991 147.652C207.564 147.652 217.804 139.305 217.804 129.045C217.804 118.785 207.564 110.438 194.991 110.438Z" fill="#191818"/>
<path d="M180.309 132.912C182.928 132.912 185.052 130.64 185.052 127.837C185.052 125.035 182.928 122.763 180.309 122.763C177.689 122.763 175.565 125.035 175.565 127.837C175.565 130.64 177.689 132.912 180.309 132.912Z" fill="#F8F59C"/>
<path d="M180.309 133.153C179.326 133.153 178.365 132.841 177.548 132.257C176.731 131.673 176.094 130.843 175.718 129.871C175.342 128.9 175.243 127.831 175.435 126.8C175.627 125.768 176.1 124.821 176.795 124.078C177.49 123.334 178.375 122.828 179.339 122.623C180.303 122.418 181.302 122.523 182.21 122.925C183.118 123.328 183.894 124.009 184.44 124.883C184.986 125.757 185.278 126.785 185.278 127.837C185.278 129.247 184.754 130.599 183.822 131.596C182.89 132.593 181.627 133.153 180.309 133.153ZM180.309 123.004C179.415 123.004 178.542 123.287 177.799 123.818C177.056 124.349 176.477 125.104 176.135 125.987C175.793 126.87 175.704 127.842 175.878 128.78C176.052 129.717 176.482 130.578 177.114 131.254C177.746 131.93 178.551 132.39 179.427 132.577C180.304 132.763 181.212 132.668 182.037 132.302C182.863 131.936 183.568 131.317 184.065 130.522C184.561 129.727 184.826 128.793 184.826 127.837C184.826 126.555 184.35 125.326 183.503 124.419C182.656 123.513 181.507 123.004 180.309 123.004Z" fill="#191818"/>
<path d="M228.119 91.0254C228.119 91.0254 217.578 106.33 216.524 109.874C215.735 112.524 219.327 111.211 221.192 110.38C221.272 110.344 221.361 110.335 221.447 110.355C221.532 110.374 221.61 110.421 221.67 110.488C221.73 110.556 221.77 110.641 221.783 110.734C221.797 110.826 221.785 110.92 221.747 111.005L220.497 113.829C220.417 114.01 220.389 114.212 220.415 114.411C220.442 114.609 220.522 114.795 220.646 114.945C220.771 115.095 220.933 115.203 221.114 115.255C221.295 115.306 221.487 115.3 221.665 115.237L223.157 114.705C223.236 114.677 223.32 114.673 223.401 114.695C223.481 114.717 223.554 114.764 223.611 114.829C223.667 114.894 223.705 114.975 223.72 115.062C223.734 115.15 223.725 115.24 223.693 115.322L223.152 118.09L225.712 123.567C228.779 113.049 229.602 101.929 228.122 91.0254H228.119Z" fill="#F3D2C9"/>
<path d="M225.757 124.212L222.911 118.123L223.482 115.223C223.497 115.184 223.502 115.141 223.495 115.099C223.488 115.057 223.47 115.018 223.442 114.986C223.415 114.955 223.38 114.933 223.342 114.922C223.303 114.912 223.262 114.913 223.225 114.927L221.732 115.46C221.513 115.539 221.276 115.547 221.052 115.483C220.828 115.419 220.626 115.286 220.473 115.1C220.319 114.914 220.22 114.684 220.188 114.438C220.155 114.193 220.191 113.942 220.291 113.719L221.541 110.895C221.559 110.854 221.566 110.809 221.559 110.764C221.552 110.72 221.533 110.679 221.503 110.646C221.475 110.614 221.438 110.591 221.397 110.582C221.356 110.573 221.313 110.577 221.275 110.595C218.746 111.723 217.137 111.977 216.492 111.346C216.161 111.023 216.099 110.498 216.308 109.794C217.362 106.25 227.506 91.5017 227.936 90.875L228.263 90.4014L228.341 90.9829C229.831 101.922 229.007 113.079 225.932 123.633L225.757 124.212ZM223.387 118.059L225.66 122.92C228.525 112.796 229.314 102.129 227.972 91.6483C226.184 94.2677 217.665 106.832 216.739 109.947C216.588 110.458 216.606 110.811 216.796 110.998C217.272 111.463 218.88 111.149 221.101 110.157C221.224 110.102 221.36 110.089 221.49 110.119C221.62 110.149 221.739 110.22 221.831 110.323C221.922 110.426 221.983 110.556 222.004 110.697C222.025 110.838 222.006 110.982 221.949 111.11L220.699 113.933C220.638 114.071 220.616 114.226 220.636 114.377C220.656 114.529 220.718 114.67 220.812 114.785C220.907 114.9 221.031 114.982 221.169 115.022C221.307 115.062 221.454 115.057 221.589 115.009L223.082 114.477C223.2 114.435 223.326 114.429 223.447 114.461C223.568 114.493 223.678 114.56 223.764 114.656C223.851 114.752 223.91 114.872 223.935 115.002C223.96 115.132 223.95 115.268 223.907 115.392L223.387 118.059Z" fill="black"/>
<path d="M183.998 106.007C177.394 101.627 170.543 96.9695 163.939 92.5893C162.573 91.6839 160.376 92.8503 160.357 94.5692C160.316 98.2438 159.754 102.318 160.808 107.94C161.376 110.975 161.629 112.544 162.203 114.626C162.973 117.424 163.968 120.146 165.175 122.761C165.952 121.124 166.859 119.561 167.886 118.089C168.752 116.847 171.885 112.544 177.523 109.068C179.574 107.805 181.745 106.779 183.998 106.007Z" fill="#333333"/>
<path d="M165.172 123.302L164.973 122.869C163.761 120.241 162.761 117.507 161.986 114.696C161.502 112.942 161.233 111.518 160.841 109.364C160.763 108.939 160.679 108.483 160.587 107.988C159.772 103.639 159.918 100.202 160.046 97.177C160.085 96.2684 160.122 95.4049 160.131 94.5672C160.14 93.7295 160.635 92.9111 161.456 92.4295C162.329 91.9156 163.326 91.8995 164.058 92.386C167.36 94.5737 170.778 96.8709 174.085 99.0924C177.392 101.314 180.813 103.613 184.117 105.804L184.533 106.079L184.067 106.24C181.829 107.007 179.673 108.026 177.636 109.28C172.566 112.407 169.464 116.233 168.066 118.237C167.048 119.698 166.148 121.249 165.377 122.874L165.172 123.302ZM162.852 92.5197C162.439 92.5234 162.034 92.638 161.674 92.8532C160.998 93.2495 160.59 93.8922 160.582 94.5737C160.573 95.4243 160.536 96.2861 160.498 97.1979C160.37 100.198 160.226 103.595 161.03 107.895C161.121 108.389 161.206 108.844 161.286 109.271C161.694 111.487 161.941 112.828 162.42 114.559C163.145 117.19 164.069 119.753 165.181 122.224C165.918 120.73 166.761 119.3 167.705 117.946C169.123 115.913 172.269 112.03 177.41 108.86C179.336 107.676 181.366 106.698 183.471 105.941C180.294 103.832 177.019 101.631 173.847 99.4968C170.534 97.2753 167.124 94.9861 163.823 92.7903C163.529 92.6056 163.193 92.5119 162.852 92.5197Z" fill="#191818"/>
<path d="M160.356 94.248C160.356 94.248 171.707 104.871 173.112 107.653C173.195 107.814 173.547 108.558 173.287 108.895C172.79 109.539 170.665 107.916 169.692 108.747C169.594 108.833 169.511 108.938 169.448 109.056C169.339 109.276 169.291 109.525 169.311 109.773C169.331 110.021 169.418 110.258 169.561 110.454C169.886 110.917 170.314 111.658 170.273 112.362C170.273 112.571 170.213 112.775 170.1 112.947C169.81 113.327 169.269 113.33 169.12 113.33C168.134 113.33 167.601 112.313 167.576 112.267C167.448 112.156 167.287 112.097 167.121 112.1C166.956 112.104 166.797 112.171 166.673 112.288C166.595 112.376 166.545 112.489 166.531 112.61C166.497 112.889 166.54 113.172 166.655 113.425C166.982 114.132 166.599 116.413 166.376 117.441C166.04 118.975 165.481 120.442 164.72 121.791C163.365 118.624 161.535 113.575 160.654 107.453C160.176 104.11 160 100.725 160.129 97.3459C160.186 96.0846 160.281 95.0213 160.356 94.248Z" fill="#F3D2C9"/>
<path d="M164.723 122.038H164.711C164.67 122.035 164.63 122.021 164.596 121.996C164.562 121.971 164.535 121.936 164.519 121.896C162.543 117.32 161.168 112.474 160.432 107.495C159.951 104.138 159.774 100.74 159.903 97.3463C159.948 96.3072 160.024 95.252 160.129 94.2274C160.133 94.183 160.148 94.1405 160.173 94.1047C160.197 94.0688 160.231 94.041 160.27 94.0244C160.308 94.0077 160.351 94.0028 160.392 94.0102C160.433 94.0176 160.471 94.037 160.503 94.0663C160.966 94.5013 171.9 104.75 173.302 107.539C173.453 107.848 173.787 108.618 173.453 109.05C173.118 109.482 172.509 109.266 171.787 109.039C171.066 108.812 170.263 108.555 169.83 108.936C169.753 109.002 169.689 109.083 169.641 109.176C169.554 109.354 169.517 109.555 169.534 109.755C169.551 109.955 169.622 110.145 169.738 110.303C170.104 110.824 170.531 111.607 170.491 112.369C170.488 112.629 170.41 112.883 170.266 113.094C170.028 113.404 169.64 113.564 169.113 113.566C168.099 113.566 167.521 112.641 167.398 112.42C167.312 112.36 167.211 112.332 167.108 112.338C167.006 112.344 166.909 112.386 166.83 112.456C166.787 112.51 166.76 112.576 166.753 112.647C166.726 112.877 166.762 113.11 166.857 113.317C167.283 114.239 166.667 117.164 166.595 117.495C166.254 119.053 165.686 120.544 164.913 121.914C164.894 121.95 164.867 121.98 164.833 122.002C164.8 122.024 164.762 122.036 164.723 122.038ZM160.536 94.7381C160.454 95.6096 160.396 96.4909 160.358 97.3624C160.229 100.726 160.404 104.094 160.881 107.421C161.585 112.204 162.886 116.863 164.749 121.276C165.388 120.061 165.863 118.756 166.16 117.4C166.426 116.17 166.726 114.128 166.461 113.545C166.321 113.246 166.268 112.909 166.311 112.578C166.331 112.404 166.404 112.241 166.518 112.116C166.683 111.958 166.895 111.869 167.116 111.864C167.337 111.859 167.552 111.939 167.723 112.088C167.744 112.106 167.761 112.129 167.773 112.154C167.773 112.164 168.256 113.09 169.114 113.09C169.5 113.09 169.771 112.99 169.92 112.796C170.001 112.664 170.044 112.509 170.042 112.351C170.072 111.734 169.696 111.062 169.375 110.601C169.205 110.368 169.102 110.086 169.079 109.79C169.057 109.495 169.115 109.199 169.247 108.939C169.324 108.794 169.426 108.665 169.548 108.56C170.17 108.029 171.099 108.32 171.918 108.578C172.391 108.726 172.972 108.91 173.111 108.739C173.212 108.609 173.126 108.191 172.911 107.772C171.677 105.319 162.407 96.5053 160.536 94.7381Z" fill="black"/>
<path d="M180.309 131.461C182.18 131.461 183.697 129.838 183.697 127.837C183.697 125.835 182.18 124.212 180.309 124.212C178.437 124.212 176.92 125.835 176.92 127.837C176.92 129.838 178.437 131.461 180.309 131.461Z" fill="black"/>
<path d="M180.309 131.703C179.594 131.703 178.895 131.477 178.301 131.052C177.707 130.627 177.243 130.023 176.97 129.317C176.696 128.61 176.625 127.833 176.764 127.083C176.904 126.333 177.248 125.644 177.753 125.103C178.259 124.562 178.903 124.194 179.604 124.045C180.305 123.896 181.031 123.972 181.692 124.265C182.352 124.558 182.917 125.053 183.314 125.689C183.711 126.325 183.923 127.072 183.923 127.837C183.923 128.862 183.542 129.846 182.864 130.571C182.187 131.296 181.267 131.703 180.309 131.703ZM180.309 124.454C179.683 124.454 179.072 124.652 178.552 125.024C178.032 125.396 177.627 125.924 177.387 126.542C177.148 127.161 177.085 127.841 177.207 128.497C177.329 129.153 177.631 129.756 178.073 130.229C178.515 130.702 179.078 131.025 179.692 131.155C180.305 131.286 180.941 131.219 181.519 130.963C182.097 130.707 182.591 130.273 182.938 129.717C183.286 129.16 183.471 128.506 183.471 127.837C183.471 126.94 183.138 126.079 182.545 125.445C181.952 124.81 181.147 124.454 180.309 124.454Z" fill="#191818"/>
<path d="M210.726 132.912C213.346 132.912 215.47 130.64 215.47 127.837C215.47 125.035 213.346 122.763 210.726 122.763C208.107 122.763 205.983 125.035 205.983 127.837C205.983 130.64 208.107 132.912 210.726 132.912Z" fill="#F8F59C"/>
<path d="M210.726 133.153C209.743 133.153 208.783 132.841 207.965 132.257C207.148 131.673 206.511 130.843 206.135 129.871C205.759 128.9 205.661 127.831 205.852 126.8C206.044 125.768 206.517 124.821 207.212 124.078C207.907 123.334 208.793 122.828 209.757 122.623C210.721 122.418 211.72 122.523 212.628 122.925C213.536 123.328 214.312 124.009 214.858 124.883C215.404 125.757 215.695 126.785 215.695 127.837C215.695 129.247 215.172 130.599 214.24 131.596C213.308 132.593 212.044 133.153 210.726 133.153ZM210.726 123.004C209.833 123.004 208.959 123.287 208.216 123.818C207.473 124.349 206.894 125.104 206.552 125.987C206.211 126.87 206.121 127.842 206.295 128.78C206.47 129.717 206.9 130.578 207.532 131.254C208.164 131.93 208.968 132.39 209.845 132.577C210.721 132.763 211.629 132.668 212.455 132.302C213.28 131.936 213.986 131.317 214.482 130.522C214.979 129.727 215.244 128.793 215.244 127.837C215.244 126.555 214.768 125.326 213.92 124.419C213.073 123.513 211.924 123.004 210.726 123.004Z" fill="#191818"/>
<path d="M210.726 131.461C212.598 131.461 214.115 129.838 214.115 127.837C214.115 125.835 212.598 124.212 210.726 124.212C208.855 124.212 207.338 125.835 207.338 127.837C207.338 129.838 208.855 131.461 210.726 131.461Z" fill="black"/>
<path d="M210.726 131.703C210.012 131.703 209.313 131.477 208.718 131.052C208.124 130.627 207.661 130.023 207.387 129.317C207.114 128.61 207.042 127.833 207.182 127.083C207.321 126.333 207.665 125.644 208.171 125.103C208.676 124.562 209.32 124.194 210.021 124.045C210.722 123.896 211.449 123.972 212.109 124.265C212.77 124.558 213.334 125.053 213.731 125.689C214.128 126.325 214.34 127.072 214.34 127.837C214.34 128.862 213.96 129.846 213.282 130.571C212.604 131.296 211.685 131.703 210.726 131.703ZM210.726 124.454C210.101 124.454 209.489 124.652 208.969 125.024C208.449 125.396 208.044 125.924 207.805 126.542C207.565 127.161 207.503 127.841 207.625 128.497C207.747 129.153 208.048 129.756 208.49 130.229C208.932 130.702 209.496 131.025 210.109 131.155C210.723 131.286 211.359 131.219 211.936 130.963C212.514 130.707 213.008 130.273 213.356 129.717C213.703 129.16 213.889 128.506 213.889 127.837C213.889 126.94 213.555 126.079 212.962 125.445C212.369 124.81 211.565 124.454 210.726 124.454Z" fill="#191818"/>
<path d="M193.9 128.825L195.442 129.046L196.856 128.83C196.917 128.82 196.98 128.83 197.036 128.857C197.092 128.885 197.14 128.929 197.173 128.984C197.207 129.04 197.225 129.104 197.225 129.17C197.225 129.236 197.207 129.301 197.174 129.357L195.805 131.657C195.765 131.722 195.71 131.776 195.646 131.814C195.581 131.851 195.509 131.871 195.436 131.873C195.363 131.874 195.291 131.856 195.225 131.821C195.16 131.786 195.104 131.734 195.061 131.67L193.59 129.362C193.555 129.306 193.536 129.242 193.535 129.175C193.534 129.108 193.55 129.043 193.583 128.986C193.616 128.93 193.663 128.885 193.719 128.856C193.775 128.827 193.838 128.817 193.9 128.825Z" fill="#F3D2C9"/>
<path d="M195.429 132.119C195.319 132.119 195.211 132.089 195.114 132.033C195.018 131.977 194.935 131.896 194.875 131.797L193.404 129.49C193.344 129.397 193.311 129.287 193.308 129.173C193.306 129.06 193.334 128.948 193.39 128.852C193.445 128.755 193.526 128.678 193.622 128.63C193.717 128.581 193.824 128.563 193.929 128.578L195.435 128.794L196.819 128.582C196.923 128.566 197.029 128.583 197.124 128.63C197.219 128.676 197.3 128.751 197.357 128.845C197.414 128.939 197.444 129.049 197.445 129.161C197.445 129.273 197.416 129.383 197.36 129.477L195.991 131.778C195.932 131.878 195.85 131.962 195.753 132.02C195.656 132.078 195.547 132.109 195.435 132.111L195.429 132.119ZM193.855 129.059C193.839 129.058 193.823 129.063 193.809 129.072C193.795 129.081 193.783 129.093 193.776 129.108C193.765 129.125 193.759 129.145 193.759 129.165C193.759 129.185 193.765 129.205 193.776 129.221L195.247 131.528C195.268 131.56 195.296 131.586 195.328 131.604C195.36 131.622 195.396 131.631 195.432 131.631C195.469 131.631 195.505 131.621 195.537 131.602C195.569 131.583 195.595 131.555 195.615 131.522L196.982 129.221C196.993 129.205 196.999 129.186 196.999 129.166C196.999 129.146 196.993 129.126 196.982 129.11C196.972 129.093 196.958 129.08 196.941 129.071C196.924 129.063 196.906 129.06 196.887 129.063L195.443 129.284L193.869 129.06L193.855 129.059Z" fill="black"/>
<path d="M193.192 134.629C193.042 134.629 192.878 134.619 192.709 134.602C192.649 134.595 192.594 134.564 192.556 134.514C192.518 134.464 192.5 134.4 192.506 134.336C192.512 134.272 192.541 134.213 192.588 134.172C192.634 134.131 192.694 134.112 192.754 134.118C193.637 134.212 194.284 134.035 194.676 133.59C195.25 132.946 195.107 131.923 195.105 131.911C195.096 131.847 195.111 131.782 195.147 131.73C195.183 131.677 195.236 131.643 195.296 131.633C195.356 131.623 195.417 131.639 195.466 131.677C195.515 131.716 195.548 131.773 195.557 131.837C195.557 131.887 195.735 133.102 195.01 133.922C194.592 134.394 193.983 134.629 193.192 134.629Z" fill="black"/>
<path d="M197.596 134.79C196.805 134.79 196.198 134.555 195.789 134.086C195.064 133.266 195.234 132.051 195.242 132.001C195.251 131.937 195.284 131.88 195.332 131.841C195.381 131.803 195.442 131.787 195.502 131.797C195.562 131.807 195.616 131.841 195.652 131.894C195.688 131.946 195.703 132.011 195.694 132.075C195.694 132.093 195.555 133.115 196.124 133.757C196.518 134.2 197.162 134.376 198.045 134.283C198.105 134.276 198.165 134.295 198.211 134.336C198.258 134.377 198.287 134.436 198.293 134.5C198.299 134.564 198.281 134.628 198.243 134.678C198.205 134.728 198.15 134.759 198.09 134.766C197.912 134.78 197.751 134.79 197.596 134.79Z" fill="black"/>
<path d="M226.914 129.528L237.53 126.064L226.914 129.528Z" fill="#F8F3ED"/>
<path d="M226.914 129.77C226.861 129.769 226.809 129.748 226.768 129.711C226.728 129.673 226.701 129.621 226.693 129.564C226.685 129.507 226.696 129.449 226.725 129.4C226.753 129.352 226.797 129.315 226.848 129.298L237.464 125.834C237.52 125.821 237.578 125.83 237.628 125.86C237.677 125.891 237.714 125.94 237.731 125.999C237.748 126.057 237.743 126.12 237.718 126.175C237.693 126.23 237.65 126.273 237.597 126.295L226.981 129.759C226.959 129.766 226.937 129.77 226.914 129.77Z" fill="black"/>
<path d="M227.291 132.025L237.304 133.716L227.291 132.025Z" fill="#F8F3ED"/>
<path d="M237.304 133.957H237.27L227.256 132.266C227.196 132.256 227.142 132.221 227.106 132.169C227.07 132.117 227.055 132.052 227.065 131.988C227.074 131.924 227.106 131.866 227.155 131.828C227.204 131.789 227.265 131.773 227.325 131.783L237.339 133.474C237.399 133.479 237.454 133.509 237.494 133.558C237.533 133.607 237.552 133.67 237.547 133.734C237.543 133.798 237.515 133.858 237.469 133.899C237.423 133.941 237.364 133.962 237.304 133.957Z" fill="black"/>
<path d="M163.594 132.025L154.484 134.199L163.594 132.025Z" fill="#F8F3ED"/>
<path d="M154.484 134.441C154.424 134.448 154.364 134.43 154.317 134.389C154.27 134.349 154.24 134.29 154.233 134.226C154.227 134.162 154.244 134.098 154.282 134.048C154.32 133.997 154.374 133.965 154.434 133.958L163.545 131.783C163.601 131.774 163.659 131.787 163.707 131.822C163.754 131.856 163.788 131.909 163.8 131.969C163.813 132.029 163.804 132.091 163.775 132.144C163.746 132.197 163.699 132.236 163.644 132.254L154.534 134.428C154.518 134.435 154.501 134.44 154.484 134.441Z" fill="black"/>
<path d="M163.97 129.366L153.957 127.675L163.97 129.366Z" fill="#F8F3ED"/>
<path d="M163.97 129.608H163.936L153.922 127.918C153.892 127.913 153.864 127.902 153.838 127.885C153.812 127.868 153.79 127.846 153.772 127.821C153.755 127.795 153.742 127.765 153.735 127.734C153.727 127.703 153.726 127.671 153.731 127.639C153.735 127.607 153.746 127.577 153.761 127.549C153.777 127.522 153.797 127.498 153.821 127.479C153.845 127.46 153.873 127.446 153.902 127.439C153.931 127.431 153.962 127.43 153.991 127.434L164.005 129.125C164.065 129.13 164.12 129.16 164.16 129.209C164.199 129.258 164.218 129.321 164.213 129.385C164.209 129.449 164.181 129.509 164.135 129.551C164.089 129.593 164.03 129.613 163.97 129.608Z" fill="black"/>
<path d="M51.2276 33.2734C57.9391 36.555 65.5781 43.9236 74.6749 53.3268C88.6474 67.7708 97.3828 91.0928 100.123 99.8839C99.2545 100.316 95.5712 93.0083 94.7024 93.44C91.8007 84.9438 86.0785 71.0717 73.7714 57.5154C63.7124 46.4351 54.9485 38.2368 47.8711 34.6395L51.2276 33.2734Z" fill="#5CA182"/>
<path d="M100.037 100.149C99.5009 100.149 98.745 99.0954 97.2286 96.8046C96.4004 95.5545 95.1506 93.6664 94.7862 93.6664L94.5633 93.7759L94.4925 93.5246C89.7642 79.6703 82.9338 67.9553 73.6112 57.6853C62.4681 45.4049 54.2523 38.1523 47.7772 34.8595L47.2983 34.6178L51.2376 33.0068L51.3249 33.0487C57.7533 36.1933 65.0867 43.0722 74.8339 53.1488C80.9084 59.4316 86.6201 67.9939 91.8137 78.6102C96.5841 88.3776 99.3639 96.6886 100.337 99.8058L100.401 100.01L100.218 100.101C100.162 100.131 100.1 100.148 100.037 100.149ZM94.8539 93.1847C95.387 93.2685 96.1414 94.3269 97.596 96.5243C98.2737 97.5505 99.2329 99.0003 99.7584 99.4836C98.2526 94.7699 89.5414 69.0362 74.5177 53.4968C64.8473 43.5055 57.5696 36.6718 51.2195 33.5368L48.4398 34.6645C54.8907 38.0878 63.0117 45.3163 73.9334 57.3454C83.2621 67.625 90.1091 79.3465 94.8539 93.1847Z" fill="black"/>
<path d="M88.5358 105.149C77.2902 94.9994 61.5423 82.6771 56.2899 80.5183C42.7706 74.9605 30.7691 72.536 22.9976 72.4538C23.8328 71.5366 24.6695 70.6205 25.5078 69.7055C32.8863 69.6701 43.519 71.8626 55.4738 76.3105C60.2683 78.0971 78.6214 90.8866 91.7643 103.802L88.5358 105.149Z" fill="#5CA182"/>
<path d="M88.4934 105.425L88.3895 105.333C77.4677 95.4689 61.5647 82.9404 56.2084 80.743C44.1814 75.8022 31.7583 72.7864 22.9944 72.6946H22.4658L25.4112 69.4727H25.6793C33.359 69.4727 44.2311 71.8794 55.5399 76.0921C60.2576 77.8497 78.4285 90.3879 91.9071 103.64L92.1737 103.902L88.4934 105.425ZM23.5259 72.2194C32.3049 72.4191 44.5262 75.4236 56.3786 80.2919C61.7604 82.5038 77.6394 94.9969 88.5868 104.871L91.3425 103.717C78.1529 90.8293 59.9369 78.2283 55.3983 76.5384C44.1377 72.3499 33.3228 69.9463 25.6868 69.9463H25.61L23.5259 72.2194Z" fill="black"/>
<path d="M100.279 100.176C97.6051 96.3258 91.3107 84.527 87.6425 80.7203C80.3169 73.1339 71.8387 66.9356 62.5704 62.3906L59.2109 63.7503C69.489 68.9937 78.8093 76.1585 86.733 84.9072C89.3983 87.8537 94.9307 98.7245 97.0359 101.661L100.279 100.176Z" fill="#5CA182"/>
<path d="M96.9641 101.961L96.8572 101.813C96.0124 100.632 94.6617 98.2575 93.0926 95.5092C90.7766 91.4415 88.1535 86.8309 86.5663 85.0765C78.6666 76.3433 69.3677 69.1957 59.1105 63.9728L58.6377 63.7199L62.5784 62.125L62.6658 62.1669C71.9606 66.7197 80.461 72.936 87.8011 80.5481C90.23 83.0676 93.8154 89.0862 96.696 93.9192C98.2275 96.4967 99.5571 98.7118 100.461 100.025L100.632 100.27L96.9641 101.961ZM59.7851 63.7811C69.9026 69.0078 79.0783 76.104 86.8901 84.7431C88.5118 86.5361 91.1501 91.1708 93.4766 95.2611C94.9086 97.7758 96.2639 100.157 97.1056 101.372L99.923 100.083C99.012 98.736 97.7531 96.6208 96.309 94.1946C93.4404 89.3778 89.8716 83.3834 87.4803 80.9025C80.2013 73.3521 71.775 67.1811 62.5619 62.6534L59.7851 63.7811Z" fill="black"/>
<path d="M199.056 188.49L204.176 200.734C201.621 201.044 199.038 200.99 196.496 200.573C196.496 200.573 192.101 200.026 189.179 197.673C187.149 196.042 187.053 194.894 187.027 194.551C186.91 192.982 187.877 191.872 188.252 191.49L188.365 191.38C189.72 190.114 192.129 189.942 192.28 189.93C193.822 189.829 195.952 189.402 199.056 188.49Z" fill="#333333"/>
<path d="M200.883 201.173C199.402 201.174 197.924 201.053 196.461 200.81C196.288 200.79 191.98 200.232 189.044 197.874C187.636 196.746 186.881 195.634 186.803 194.578C186.684 193.002 187.556 191.863 188.097 191.323L188.215 191.207C189.553 189.954 191.829 189.73 192.263 189.698C193.892 189.58 196.094 189.108 198.996 188.248L199.182 188.193L204.509 200.92L204.207 200.957C203.104 201.095 201.994 201.167 200.883 201.173ZM198.925 188.778C196.085 189.603 193.914 190.067 192.29 190.181C192.034 190.199 189.762 190.396 188.509 191.572C188.462 191.615 188.42 191.657 188.407 191.671C187.928 192.155 187.145 193.165 187.249 194.539C187.316 195.451 188.011 196.443 189.31 197.487C192.147 199.765 196.473 200.327 196.517 200.332C198.94 200.73 201.4 200.796 203.838 200.529L198.925 188.778Z" fill="#191818"/>
<path d="M152.945 175.236L157.495 160.781C154.404 160.732 151.334 161.335 148.46 162.553C146.392 163.477 144.463 164.726 142.738 166.258C142.588 166.395 140.48 168.333 140.404 170.2C140.404 170.302 140.404 170.397 140.404 170.403C140.439 171.977 141.508 172.981 141.919 173.303L142.043 173.4C143.303 174.353 144.84 174.247 147.107 174.307C148.385 174.341 149.024 174.358 149.817 174.468C150.88 174.618 151.927 174.875 152.945 175.236Z" fill="#333333"/>
<path d="M152.945 175.48C152.921 175.479 152.897 175.475 152.874 175.467C151.87 175.112 150.836 174.86 149.787 174.715C149.004 174.605 148.367 174.589 147.099 174.554C146.814 174.554 146.54 174.541 146.277 174.536C144.414 174.504 143.068 174.479 141.91 173.603L141.78 173.5C141.198 173.017 140.213 171.989 140.177 170.408C140.177 170.408 140.177 170.301 140.177 170.188C140.258 168.232 142.353 166.288 142.586 166.072C144.336 164.525 146.29 163.264 148.385 162.328C151.286 161.1 154.385 160.492 157.504 160.54C157.54 160.54 157.576 160.55 157.607 160.567C157.639 160.585 157.667 160.611 157.687 160.643C157.708 160.674 157.721 160.711 157.726 160.749C157.731 160.787 157.727 160.826 157.715 160.862L153.165 175.317C153.149 175.366 153.119 175.408 153.08 175.437C153.04 175.466 152.993 175.481 152.945 175.48ZM157.161 161.02C154.21 161.019 151.285 161.616 148.54 162.777C146.496 163.695 144.589 164.931 142.881 166.444C142.792 166.524 140.699 168.43 140.622 170.21C140.622 170.299 140.622 170.383 140.622 170.394C140.654 171.776 141.526 172.694 142.049 173.118L142.164 173.21C143.209 173.999 144.497 174.015 146.278 174.054C146.543 174.054 146.817 174.064 147.105 174.072C148.388 174.106 149.033 174.123 149.838 174.233C150.841 174.373 151.831 174.607 152.796 174.932L157.176 161.018L157.161 161.02Z" fill="#191818"/>
<path d="M20.2839 23.6852L16.0601 21.2204C15.0069 20.6058 14.1475 19.6713 13.5901 18.5349C13.0327 17.3984 12.8023 16.1108 12.928 14.8345L13.2818 11.2565C13.4234 9.82239 13.8545 8.43827 14.5453 7.19994C15.2361 5.9616 16.1702 4.8986 17.2828 4.08448C17.9281 3.61262 18.6782 3.3311 19.4576 3.26831C20.2369 3.20552 21.018 3.36368 21.722 3.72684C22.1283 3.92915 22.5445 4.10769 22.9688 4.26168C27.8743 6.11649 32.3364 9.10732 36.0364 13.0205L29.4906 25.7198L20.2839 23.6852Z" fill="#DA4E22"/>
<path d="M29.6069 25.9928L20.2061 23.9146L20.1759 23.8969L15.9521 21.4337C14.8594 20.797 13.9679 19.8276 13.3907 18.6483C12.8136 17.469 12.5767 16.1329 12.71 14.8094L13.0639 11.2315C13.208 9.76236 13.6492 8.3444 14.3567 7.0759C15.0642 5.8074 16.0212 4.71874 17.1613 3.88542C17.8401 3.39009 18.6289 3.09463 19.4483 3.02874C20.2677 2.96285 21.0889 3.12885 21.8293 3.51007C22.2284 3.70818 22.6371 3.88349 23.0536 4.03524C27.9902 5.90023 32.4799 8.91059 36.201 12.8505L36.3229 12.9777L29.6069 25.9928ZM20.3627 23.4555L29.3735 25.4483L35.7568 13.0647C32.1049 9.23753 27.7147 6.31127 22.894 4.49115C22.4621 4.33642 22.0383 4.1568 21.6245 3.95308C20.9558 3.60839 20.214 3.45832 19.4738 3.51799C18.7336 3.57766 18.0211 3.84498 17.4082 4.293C16.3218 5.08658 15.4098 6.12358 14.7356 7.33202C14.0613 8.54046 13.6409 9.89139 13.5036 11.2911L13.1497 14.869C13.0262 16.0978 13.2465 17.3382 13.7826 18.4329C14.3188 19.5276 15.1467 20.4274 16.1614 21.0181L20.3627 23.4555Z" fill="black"/>
<path d="M24.2639 19.4188L24.16 19.4269C22.8363 19.5301 21.5792 20.0875 20.5754 21.0163C19.5716 21.9451 18.8747 23.1956 18.5884 24.582L18.1848 26.5345C17.7669 28.5568 18.0428 30.6724 18.962 32.4951C19.8812 34.3179 21.3824 35.7262 23.1917 36.4629L35.6133 41.5214L37.5257 26.9904L28.9425 20.7576C27.5686 19.7598 25.9199 19.2881 24.2639 19.4188Z" fill="#DA4E22"/>
<path d="M35.7989 41.8548L23.1123 36.6901C21.2522 35.9326 19.7086 34.4849 18.7635 32.611C17.8183 30.7371 17.5345 28.5621 17.9639 26.4829L18.3674 24.5321C18.6589 23.0918 19.3797 21.7918 20.4215 20.8278C21.4633 19.8638 22.7696 19.2879 24.1438 19.1869L24.2477 19.1788C25.9531 19.049 27.6498 19.5352 29.0664 20.5594L37.767 26.8776L35.7989 41.8548ZM24.2808 19.6605L24.1769 19.6685C22.8997 19.7623 21.6855 20.2975 20.7173 21.1936C19.749 22.0897 19.0792 23.2981 18.8086 24.6368L18.4051 26.5877C18.0084 28.5527 18.2807 30.6047 19.173 32.3739C20.0653 34.1432 21.5189 35.5133 23.2719 36.2374L35.43 41.1879L37.2822 27.1096L28.8224 20.9605C27.4898 19.9963 25.8931 19.5385 24.2884 19.6605H24.2808Z" fill="black"/>
<path d="M46.2897 10.5287L41.4515 3.66757C40.5281 2.35638 39.2749 1.35357 37.8384 0.776434C36.4018 0.199299 34.8414 0.0717029 33.3395 0.408572L31.7539 0.764598C30.9869 0.935485 30.2713 1.30652 29.6706 1.84472C29.07 2.38291 28.603 3.07157 28.3113 3.84944C28.0195 4.62731 27.9119 5.47028 27.9981 6.30336C28.0843 7.13644 28.3617 7.9338 28.8055 8.62453L32.8712 14.7946L45.6121 19.7257L46.2897 10.5287Z" fill="#DA4E22"/>
<path d="M45.8145 20.0629L32.7288 14.998L28.6209 8.76518C28.1577 8.04177 27.8685 7.20721 27.779 6.33556C27.6896 5.4639 27.8026 4.5821 28.1081 3.7684C28.4136 2.9547 28.9022 2.23426 29.5304 1.67101C30.1586 1.10775 30.9071 0.719106 31.7094 0.53955L33.2965 0.185137C34.8373 -0.156128 36.4369 -0.0237511 37.9103 0.566954C39.3836 1.15766 40.6706 2.18255 41.6222 3.52307L46.5117 10.4503L46.5041 10.5421L45.8145 20.0629ZM33.0149 14.5953L45.4094 19.3928L46.0509 10.6097L41.2654 3.8211C40.3652 2.55197 39.1476 1.58134 37.7534 1.02144C36.3592 0.461543 34.8453 0.335245 33.3869 0.65715L31.7997 1.01318C31.0705 1.17642 30.3902 1.52963 29.8191 2.0415C29.2481 2.55337 28.8039 3.20808 28.526 3.94758C28.248 4.68707 28.145 5.48851 28.2259 6.28083C28.3068 7.07314 28.5692 7.83186 28.9898 8.4897L33.0149 14.5953Z" fill="black"/>
<path d="M35.8197 32.6779C41.2362 32.6779 45.6271 27.9803 45.6271 22.1856C45.6271 16.3909 41.2362 11.6934 35.8197 11.6934C30.4032 11.6934 26.0122 16.3909 26.0122 22.1856C26.0122 27.9803 30.4032 32.6779 35.8197 32.6779Z" fill="#F8F59C"/>
<path d="M35.8153 32.9148C34.1831 32.9142 32.5757 32.4875 31.1326 31.6718C29.6894 30.856 28.4541 29.6759 27.5338 28.2338C26.6135 26.7917 26.036 25.1312 25.8515 23.3962C25.6669 21.6613 25.8808 19.9043 26.4746 18.2778C27.0684 16.6514 28.0242 15.2045 29.2591 14.0626C30.494 12.9208 31.9706 12.1186 33.5609 11.7256C35.1512 11.3326 36.8072 11.3606 38.385 11.8072C39.9629 12.2539 41.4151 13.1057 42.6156 14.2887C44.1018 15.7521 45.1403 17.6615 45.5953 19.7668C46.0503 21.8721 45.9006 24.0754 45.1657 26.0882C44.4309 28.101 43.1451 29.8295 41.4767 31.0476C39.8084 32.2656 37.8351 32.9164 35.8153 32.9148ZM35.8228 11.9399C33.5901 11.9408 31.4278 12.7763 29.7098 14.3018C27.9918 15.8274 26.826 17.9472 26.4139 20.2948C26.0019 22.6423 26.3694 25.0702 27.4531 27.1586C28.5368 29.247 30.2684 30.8647 32.3487 31.7321C34.429 32.5995 36.7272 32.662 38.8461 31.9089C40.9649 31.1558 42.7712 29.6344 43.9527 27.6076C45.1342 25.5809 45.6167 23.1762 45.3167 20.8092C45.0168 18.4422 43.9532 16.2618 42.3099 14.6448C40.5428 12.9018 38.2263 11.9359 35.8228 11.9399Z" fill="#191818"/>
<path d="M38.0603 10.5254L37.5814 14.4611C37.3902 16.0253 37.7395 17.509 38.5602 18.6206L45.1346 27.526L48.9896 38.2857C49.7858 36.8309 50.4673 35.3075 51.027 33.7315C51.027 33.7315 52.4816 29.3529 52.3144 24.4507C52.0133 15.3519 46.0125 8.11382 45.0097 6.93297C44.5821 6.38009 44.0025 5.9855 43.3532 5.80529C42.1004 5.4831 41.0599 6.19354 40.5193 6.56084C38.7153 7.78679 38.1943 9.88911 38.0603 10.5254Z" fill="#DA4E22"/>
<path d="M48.9432 38.8294L44.9346 27.6461L38.3828 18.7728C37.5214 17.6065 37.1585 16.0648 37.3573 14.4232L37.8407 10.4667C38.0575 9.43081 38.6794 7.52019 40.4006 6.35063C40.9397 5.98494 42.057 5.22294 43.4123 5.56447C44.1088 5.75489 44.7305 6.17749 45.1876 6.77109C46.8365 8.71231 52.253 15.7394 52.5466 24.4354C52.7123 29.3295 51.2606 33.7613 51.2471 33.8064C50.68 35.3979 49.9916 36.9367 49.1886 38.4074L48.9432 38.8294ZM38.2834 10.5665L37.8045 14.4909C37.6223 15.9939 37.9551 17.4067 38.7367 18.47L45.3337 27.4044L45.3457 27.4383L49.032 37.7259C49.7167 36.4123 50.313 35.0481 50.8164 33.6437C50.83 33.6051 52.2515 29.2554 52.0888 24.4612C51.7997 15.923 46.4691 9.01356 44.8428 7.09812C44.4458 6.58173 43.9059 6.21341 43.3008 6.04615C42.1413 5.74973 41.1641 6.41345 40.64 6.76948C39.0619 7.83433 38.4867 9.60157 38.2834 10.5665Z" fill="black"/>
<path d="M35.448 41.5416L28.0092 37.8638C26.4858 37.1081 25.3007 35.7426 24.7092 34.0612C24.1178 32.3799 24.1672 30.5173 24.847 28.8746L26.3935 25.1403C27.2573 23.0553 28.8273 21.3976 30.7874 20.5009C32.7476 19.6042 34.9525 19.5351 36.9584 20.3074L45.8698 23.7468C47.6486 24.4351 49.1511 25.7583 50.1243 27.4934C51.0975 29.2286 51.4818 31.2696 51.2125 33.2725C50.8095 35.3223 49.8988 37.2186 48.5758 38.7627C45.1516 42.6854 40.2772 42.4679 39.4098 42.4228C38.0536 42.3587 36.7158 42.0611 35.448 41.5416Z" fill="#DA4E22"/>
<path d="M39.9653 42.6803C39.7575 42.6803 39.5693 42.6803 39.4051 42.669C38.0228 42.603 36.6595 42.2984 35.368 41.7669H35.353L27.9187 38.0826C26.3458 37.295 25.1227 35.8812 24.5103 34.1426C23.8979 32.404 23.9446 30.4783 24.6405 28.776L26.1855 25.0418C27.0773 22.9049 28.6902 21.2069 30.7017 20.2873C32.7132 19.3677 34.975 19.2942 37.035 20.0816L45.9465 23.521C47.772 24.2326 49.3138 25.5931 50.314 27.3752C51.3142 29.1572 51.7121 31.2526 51.4412 33.3109V33.3286C51.0299 35.4217 50.0993 37.3576 48.7473 38.9332C45.8802 42.2083 41.9756 42.6803 39.9653 42.6803ZM35.5306 41.3271C36.7754 41.8372 38.0886 42.1298 39.4202 42.1938C41.1143 42.2711 45.3833 42.0778 48.41 38.611C49.7043 37.101 50.5952 35.2465 50.9895 33.2416C51.2445 31.2948 50.8671 29.3133 49.9204 27.6284C48.9737 25.9435 47.5151 24.6574 45.7884 23.985L36.8769 20.5439C34.9247 19.7977 32.7812 19.8672 30.8749 20.7388C28.9686 21.6103 27.4401 23.2196 26.5951 25.2448L25.0486 28.9806C24.4005 30.5666 24.3572 32.3608 24.928 33.9805C25.4987 35.6002 26.6384 36.9173 28.1039 37.6508L35.5306 41.3271Z" fill="black"/>
<path d="M9.46909 54.9327L8.8517 52.6532C8.4628 51.2167 8.55476 49.6801 9.11173 48.3084C9.66869 46.9367 10.6557 45.816 11.9025 45.1396C13.0188 44.5354 14.2704 44.2756 15.517 44.3894C16.7635 44.5032 17.9559 44.9861 18.9603 45.784C20.8562 46.4638 29.4334 49.7825 33.8394 59.3951C35.3671 62.7547 36.2016 66.4264 36.2864 70.1612C36.2903 70.3996 36.2342 70.6348 36.1241 70.8421C36.014 71.0494 35.8538 71.2212 35.6603 71.3396C35.4669 71.4579 35.2472 71.5185 35.0244 71.515C34.8016 71.5115 34.5837 71.444 34.3936 71.3195L9.46909 54.9327Z" fill="#DA4E22"/>
<path d="M35.0425 71.7607C34.7699 71.7596 34.503 71.6777 34.2715 71.5238L9.27472 55.0919L8.63324 52.7222C8.23075 51.2319 8.32629 49.6382 8.90343 48.2151C9.48057 46.7921 10.5032 45.6287 11.7955 44.9251C12.9421 44.2982 14.2294 44.0256 15.5129 44.138C16.7963 44.2504 18.025 44.7433 19.0611 45.5614C22.2233 46.6988 29.9181 50.2944 34.0366 59.2837C35.5845 62.6721 36.4275 66.3792 36.5076 70.1497C36.5172 70.4321 36.454 70.712 36.3249 70.9586C36.1958 71.2052 36.0059 71.4091 35.7758 71.548C35.553 71.6864 35.3001 71.7597 35.0425 71.7607ZM9.66172 54.7746L34.5079 71.1114C34.6636 71.2147 34.8425 71.2711 35.0257 71.2747C35.2089 71.2782 35.3896 71.2288 35.5488 71.1316C35.7079 71.0345 35.8396 70.8931 35.9299 70.7226C36.0202 70.552 36.0658 70.3586 36.0619 70.1626C35.9835 66.4609 35.1575 62.8212 33.6405 59.4931C29.5748 50.636 21.9704 47.1096 18.8834 45.998L18.8488 45.9851L18.8202 45.9625C17.8505 45.1907 16.6982 44.7245 15.4938 44.6169C14.2893 44.5093 13.0807 44.7645 12.0048 45.3536C10.8056 46.0051 9.85629 47.0836 9.32032 48.4033C8.78435 49.7229 8.69528 51.2013 9.06842 52.5836L9.66172 54.7746Z" fill="black"/>
<path d="M2.45215 77.2934L5.03013 79.3474C5.79905 79.958 6.62819 80.4766 7.5027 80.894C8.5517 81.3887 9.62964 81.8101 10.7297 82.1554C13.1104 82.9028 18.9831 84.7426 25.5139 82.1715C30.5223 80.1996 33.6349 76.5331 35.2582 74.1392C35.37 73.9793 35.4402 73.7905 35.4616 73.5921C35.4829 73.3937 35.4546 73.1928 35.3795 73.0099C35.3045 72.8271 35.1854 72.6688 35.0344 72.5513C34.8834 72.4339 34.706 72.3614 34.5203 72.3413L6.16553 68.9019C5.16323 68.7803 4.15014 68.9893 3.262 69.501C2.37385 70.0126 1.65309 70.8024 1.19629 71.7646C0.762807 72.6967 0.6511 73.7626 0.880889 74.7743C1.11068 75.7859 1.66719 76.6781 2.45215 77.2934Z" fill="#DA4E22"/>
<path d="M18.4546 83.7367C14.9912 83.7367 12.2009 82.8604 10.6695 82.3803C9.55982 82.0331 8.47276 81.6079 7.41539 81.1076C6.5251 80.6836 5.68125 80.1557 4.89915 79.5337L2.31967 77.4862C1.48967 76.8389 0.901371 75.8974 0.65953 74.8294C0.417688 73.7615 0.538005 72.6364 0.999054 71.6545C1.47934 70.651 2.23336 69.8274 3.16115 69.2928C4.08895 68.7583 5.14669 68.538 6.19416 68.6613L34.5444 72.0975C34.7689 72.1233 34.9831 72.2119 35.1655 72.3542C35.3479 72.4966 35.4921 72.6878 35.5836 72.9086C35.6752 73.1294 35.7108 73.3721 35.687 73.6123C35.6632 73.8525 35.5807 74.0818 35.4479 74.2771C33.659 76.9159 30.4982 80.4649 25.5983 82.3948C23.3101 83.2911 20.8913 83.7454 18.4546 83.7367ZM2.5862 77.0915L5.16869 79.139C5.92311 79.7403 6.73777 80.2498 7.5976 80.6582C8.63665 81.1547 9.70508 81.5777 10.796 81.9244C13.2445 82.6928 18.9787 84.4891 25.4402 81.9453C30.2317 80.0589 33.3262 76.5824 35.0775 73.9984C35.1645 73.8716 35.2186 73.7223 35.2342 73.5658C35.2498 73.4093 35.2264 73.2512 35.1663 73.1076C35.1083 72.9643 35.0156 72.8401 34.8978 72.7478C34.7801 72.6555 34.6414 72.5984 34.4962 72.5824L6.13995 69.1413C5.1834 69.0293 4.21763 69.2313 3.37093 69.7205C2.52423 70.2097 1.83668 70.9629 1.3996 71.88C0.990179 72.7587 0.884719 73.764 1.10191 74.7179C1.3191 75.6718 1.84492 76.5127 2.5862 77.0915Z" fill="black"/>
<path d="M0.383226 60.9813C0.705151 62.4245 1.31478 63.7763 2.17037 64.9441C3.02596 66.1119 4.10732 67.0682 5.34042 67.7474L13.9869 72.5078C14.5666 72.751 15.4144 73.0894 16.4519 73.4454C18.6609 74.2134 20.9282 74.7739 23.2282 75.1208C27.3346 75.6427 31.8656 74.2573 34.4376 73.2827C34.6856 73.1885 34.9139 73.0429 35.1093 72.8542C35.3047 72.6655 35.4634 72.4375 35.5763 72.1831C35.6891 71.9287 35.754 71.6529 35.7671 71.3717C35.7803 71.0904 35.7414 70.8092 35.6528 70.544C34.1138 65.9866 31.846 63.3623 30.5676 62.0929C28.2064 59.7489 25.3408 58.1846 23.0505 56.9377C21.6005 56.1458 20.1133 55.4344 18.5947 54.8064L11.2312 52.63C8.79551 51.9146 6.19455 52.2526 3.98969 53.5708L3.25032 54.0122C2.12929 54.6825 1.24297 55.7254 0.725624 56.983C0.208275 58.2405 0.0880744 59.6441 0.383226 60.9813Z" fill="#DA4E22"/>
<path d="M25.1312 75.4809C24.4887 75.4827 23.8466 75.444 23.2083 75.3649C21.8079 75.1861 19.1787 74.6383 16.3824 73.6798C15.5481 73.393 14.7139 73.0757 13.9038 72.7374L13.8827 72.7277L5.23622 67.9657C3.97363 67.271 2.86658 66.2922 1.99112 65.0964C1.11566 63.9007 0.492544 62.5163 0.164587 61.0385C-0.142226 59.6484 -0.0178396 58.1892 0.518956 56.8814C1.05575 55.5736 1.9758 54.4881 3.1401 53.7891L3.87947 53.3477C6.13733 51.9926 8.80504 51.6497 11.2987 52.394L18.6772 54.5769C20.2031 55.2086 21.6978 55.9232 23.1556 56.7179C25.4655 57.9793 28.3386 59.5467 30.7224 61.9133C32.9811 64.1493 34.7068 67.0249 35.8663 70.4595C35.9653 70.7548 36.0088 71.0682 35.9942 71.3817C35.9797 71.6951 35.9073 72.0023 35.7814 72.2857C35.6554 72.5691 35.4784 72.8231 35.2603 73.033C35.0423 73.243 34.7877 73.4047 34.511 73.509C32.0294 74.4595 28.5449 75.4809 25.1312 75.4809ZM14.0784 72.2911C14.8765 72.6262 15.6987 72.9355 16.5209 73.2191C19.2856 74.1679 21.8801 74.7092 23.2625 74.8848C27.1596 75.3794 31.4527 74.1647 34.3695 73.058C34.5898 72.9748 34.7926 72.8459 34.9661 72.6786C35.1397 72.5113 35.2806 72.3089 35.3808 72.0832C35.481 71.8574 35.5385 71.6126 35.55 71.363C35.5614 71.1134 35.5267 70.8638 35.4477 70.6286C34.3123 67.2649 32.6212 64.4554 30.4212 62.2709C28.0842 59.9511 25.2412 58.4046 22.9568 57.1528C21.5162 56.3672 20.0391 55.6607 18.5312 55.036L11.1782 52.8628C8.7993 52.1544 6.25504 52.4816 4.10082 53.773L3.36297 54.2144C2.28417 54.862 1.43159 55.8674 0.933937 57.079C0.436283 58.2906 0.320577 59.6425 0.604288 60.9306C0.918259 62.3397 1.51332 63.6595 2.34868 64.7995C3.18404 65.9396 4.23995 66.8729 5.44402 67.5355L14.0784 72.2911Z" fill="black"/>
<path d="M55.4439 48.3967C55.22 48.3924 54.9979 48.441 54.7935 48.539C54.589 48.6369 54.4073 48.7819 54.2612 48.9636C54.1152 49.1452 54.0083 49.3591 53.9483 49.59C53.8883 49.8209 53.8766 50.063 53.914 50.2993C54.5164 54.1141 56.0493 62.5298 58.1815 64.6563C60.9628 67.4304 65.4321 83.4032 77.8627 80.0346C86.3978 77.7213 83.7746 68.1908 81.29 62.4396C79.9139 59.2431 77.7288 56.5226 74.9821 54.5861C72.2535 52.6804 69.2854 51.1996 66.167 50.1882C62.6877 49.0613 59.0787 48.4584 55.4439 48.3967Z" fill="#DA4E22"/>
<path d="M74.5521 80.7382C66.9913 80.7382 62.8473 73.1505 60.2467 68.382C59.3869 66.8065 58.6445 65.4452 58.0301 64.8379C55.9084 62.7227 54.4026 54.8498 53.6933 50.3391C53.6501 50.0678 53.6633 49.7895 53.7322 49.5242C53.801 49.259 53.9238 49.0133 54.0916 48.8046C54.2595 48.5959 54.4683 48.4295 54.7032 48.3171C54.9382 48.2048 55.1934 48.1493 55.4507 48.1546C59.1081 48.2157 62.7396 48.823 66.2399 49.9589C69.3769 50.9771 72.3627 52.4672 75.1077 54.3843C77.8909 56.3439 80.1045 59.0994 81.497 62.3376C83.2543 66.4037 84.9739 72.0921 83.1895 76.0953C82.2665 78.1671 80.4941 79.5718 77.9191 80.2678C76.8195 80.5741 75.6884 80.7321 74.5521 80.7382ZM55.4145 48.6363C55.2257 48.6368 55.0393 48.6812 54.8683 48.7665C54.6972 48.8519 54.5455 48.9761 54.4238 49.1305C54.3022 49.2849 54.2134 49.4658 54.1637 49.6606C54.114 49.8554 54.1046 50.0595 54.1361 50.2586C54.6992 53.8365 56.2352 62.386 58.3343 64.4786C58.9969 65.1391 59.7197 66.4633 60.6352 68.1388C63.537 73.455 68.3948 82.3507 77.8017 79.8006C80.2366 79.1401 81.9096 77.8239 82.7709 75.8875C84.48 72.0534 82.792 66.5133 81.0769 62.5406C79.7196 59.3841 77.5618 56.6984 74.8487 54.7886C72.1394 52.8965 69.1927 51.4255 66.0969 50.4197C62.6364 49.2977 59.0465 48.6975 55.4311 48.6363H55.4145Z" fill="black"/>
<path d="M105.413 97.8721C105.845 97.6305 101.328 50.7512 88.6788 32.7083C76.0298 14.6654 73.0181 11.7656 73.0181 11.7656C73.0181 11.7656 72.717 25.4589 78.138 35.1247C83.559 44.7906 89.8834 60.9003 91.6904 64.4444C93.4974 67.9886 100.123 100.369 100.123 100.369L105.413 97.8721Z" fill="#5CA182"/>
<path d="M99.9618 100.709L99.9031 100.421C99.8353 100.099 93.2624 68.0405 91.4915 64.5608C90.9073 63.4154 89.8562 60.9683 88.5251 57.8704C85.7739 51.47 81.6178 41.7994 77.9436 35.2491C72.5512 25.6349 72.7921 11.8981 72.7921 11.7595L72.8042 11.2344L73.1686 11.5872C73.2921 11.7048 76.3414 14.7076 88.8594 32.5637C95.4142 41.9073 99.6607 58.8225 102.067 71.3655C104.741 85.2988 105.806 97.1411 105.649 97.8966C105.643 97.9373 105.627 97.9759 105.605 98.0096C105.583 98.0433 105.554 98.0713 105.52 98.0916H105.505L99.9618 100.709ZM73.2439 12.3508C73.265 15.0556 73.6369 26.6256 78.3336 35.0011C82.0184 41.5722 86.182 51.259 88.9361 57.6674C90.2643 60.7573 91.3139 63.1979 91.8906 64.3288C93.6208 67.7247 99.5824 96.6046 100.286 100.03L105.217 97.7114C105.289 96.4033 104.153 84.6335 101.621 71.4525C99.2225 58.9675 94.9956 42.1328 88.4979 32.8633C78.3426 18.3678 74.3793 13.6267 73.2439 12.3508Z" fill="black"/>
</svg>
