<svg width="24" height="24" viewBox="0 0 24 24" fill="none" xmlns="http://www.w3.org/2000/svg">
<path d="M4 4L20 20" stroke="#B8B8B8" stroke-width="2" stroke-linecap="round" stroke-linejoin="round"/>
<path d="M7.5 7.50005C6.52005 7.50005 3.61951 9.90079 2.09202 11.8792C2.0369 11.9505 2.03845 12.0496 2.09429 12.1205C5.5895 16.5533 10.5492 19.4777 16 17M10 6.0001C16.0073 4.61383 21.1604 10.9147 21.9071 11.878C21.9642 11.9516 21.9578 12.0489 21.8964 12.119C21.4708 12.6048 19.8391 14.4405 19 15.0001" stroke="#B8B8B8" stroke-width="2" stroke-linecap="round"/>
<path d="M14.5 13.5003C14.5 15.1572 13.6569 15.0003 12 15.0003C10.3431 15.0003 9 13.6572 9 12.0003C9 10.3434 9.5 8.50032 11 10.0004C12 11.5004 13 11.5003 14.5 13.5003Z" fill="#B8B8B8"/>
</svg>
