<svg width="122" height="40" viewBox="0 0 122 40" fill="none" xmlns="http://www.w3.org/2000/svg">
<path fill-rule="evenodd" clip-rule="evenodd" d="M104.263 6.79221C104.205 5.28867 105.748 4.16858 107.166 4.65596C107.977 4.93446 108.577 5.52696 109.036 6.22892C109.372 6.76512 109.689 7.31622 110.009 7.87414C110.191 8.18926 110.373 8.50655 110.561 8.82457C110.63 8.93007 110.696 9.03847 110.763 9.14744C110.932 9.42553 111.103 9.70734 111.345 9.95434C111.356 9.87032 111.325 9.78077 111.289 9.73324C111.107 9.34318 110.942 8.93947 110.775 8.5292C110.669 8.26856 110.561 8.00527 110.448 7.74114C109.818 6.07627 109.407 4.35498 109.215 2.57729C109.167 1.97256 109.124 1.32582 109.367 0.759754C109.679 -0.0108468 110.342 -0.222083 111 0.249908C111.233 0.409077 111.42 0.604737 111.606 0.800397C111.895 1.18067 112.137 1.59743 112.29 2.04516C112.973 3.63154 113.176 5.32521 113.254 7.00231C113.277 7.47548 113.3 7.94865 113.287 8.37429C113.375 8.34332 113.422 8.30683 113.428 8.26482C113.789 7.11612 114.192 5.97294 114.673 4.88281C114.938 4.1487 115.239 3.46212 115.779 2.8927C116.476 2.08778 117.256 2.27674 117.641 3.22525C117.671 3.3148 117.702 3.40434 117.686 3.53038C117.803 3.93057 117.795 4.3142 117.782 4.73983C117.692 5.75363 117.322 6.64474 116.869 7.52481C116.854 7.55667 116.833 7.58483 116.813 7.61243C116.756 7.68918 116.702 7.76159 116.778 7.89739C116.927 7.8455 117.025 7.7269 117.111 7.62217C117.128 7.60189 117.144 7.58213 117.16 7.56347C117.448 7.30252 117.778 7.04711 118.102 6.8337C118.521 6.54731 118.975 6.30846 119.491 6.2487C121.122 6.08047 122.362 7.61261 121.904 9.1759C121.623 10.036 121.077 10.6475 120.376 11.1528C119.493 11.7621 118.522 12.0607 117.485 12.2222C116.187 12.4346 114.87 12.4735 113.58 12.3023C113.269 12.261 113.113 12.2403 113.029 12.3085C112.945 12.3772 112.935 12.5361 112.915 12.8551C112.884 13.257 112.841 13.668 112.798 14.079C112.755 14.4899 112.712 14.9009 112.681 15.3028C112.51 17.588 112.209 19.8986 111.7 22.1816C111.658 22.3469 111.624 22.5241 111.59 22.7012C111.557 22.8784 111.523 23.0556 111.48 23.2209C111.582 23.2343 111.636 23.1849 111.677 23.1463C111.687 23.1375 111.696 23.1292 111.705 23.1224C111.787 23.0079 111.869 22.8993 111.949 22.7933C112.169 22.5024 112.374 22.231 112.54 21.9085C112.922 21.2539 113.285 20.5756 113.649 19.8973C114.012 19.219 114.376 18.5407 114.758 17.8862C114.825 17.7861 114.89 17.6857 114.956 17.5857C115.25 17.1366 115.541 16.6922 115.939 16.2908C116.186 16.0243 116.474 15.7634 116.828 15.6395C117.408 15.4172 117.896 15.5675 118.252 16.0849C118.397 16.275 118.453 16.4961 118.509 16.7172C118.813 17.9543 118.416 19.0555 117.863 20.0505C116.436 22.5536 114.256 24.0165 111.513 24.5928C111.211 24.6382 111.023 24.7842 110.901 25.0672C110.694 25.6808 110.487 26.2944 110.239 26.9025C110.051 27.3328 109.708 28.0742 109.384 28.7658C108.265 31.8639 107.003 35.0659 106.07 36.7635C105.211 38.3399 104.421 39.1281 103.699 39.1281L103.494 39.1133C101.717 38.9064 100.766 37.5813 100.639 35.1379C100.619 34.8128 100.609 34.4581 100.609 34.0738C100.609 31.5911 100.995 27.9654 101.766 23.1969C101.102 23.8668 100.37 25.7831 99.57 28.9457C99.121 30.7388 98.8135 32.1871 98.6476 33.2906C98.4914 34.394 98.2621 35.4335 97.9595 36.4088C97.6667 37.3744 97.2031 37.8571 96.5687 37.8571H96.5101C95.4169 37.5517 94.7142 36.532 94.4019 34.798C94.1871 33.5467 94.0798 32.1871 94.0798 30.7191C94.0798 28.6206 94.2359 26.2068 94.5483 23.4777C94.5971 23.0836 94.6312 22.7388 94.6508 22.4432C93.7528 24.7388 92.9671 27.5122 92.2936 30.7635C91.669 33.6995 91.0785 35.7586 90.5221 36.9409C90.1805 37.4532 89.8145 37.7093 89.4241 37.7093C88.9947 37.7093 88.4237 37.2709 87.7112 36.3941C87.0158 35.5383 86.6319 33.5754 86.5594 30.5053C85.6386 31.0321 84.5438 31.2955 83.2751 31.2955L82.792 31.2807C82.2844 33.064 81.4841 34.5862 80.3909 35.8473C79.4247 36.9901 78.0924 37.5616 76.3941 37.5616C76.1989 37.5616 75.9988 37.5517 75.7938 37.532C74.2614 37.0492 73.0707 35.8768 72.2215 34.0147C71.6318 32.7382 71.2257 31.3603 71.0033 29.8811C70.7985 29.8486 70.5897 29.8324 70.3768 29.8324C69.84 29.8324 69.1909 29.9753 68.4296 30.261C67.6781 30.5369 67.2974 30.7536 67.2877 30.9112C67.6195 31.7191 67.7855 32.4975 67.7855 33.2462C67.7855 34.1132 67.4683 35.1182 66.8338 36.2611C66.2092 37.4039 65.1307 38.2956 63.5983 38.936C62.9248 39.2217 62.266 39.3645 61.6218 39.3645C60.8019 39.3645 60.0016 39.1379 59.2208 38.6847C58.5668 38.1428 58.2399 37.5369 58.2399 36.867C58.2399 36.601 58.357 36.1477 58.5912 35.5073C58.8352 34.8669 59.455 34.0788 60.4506 33.1428C61.4461 32.2068 62.5783 31.3645 63.8472 30.6157L59.2208 25.1772C58.5376 24.054 58.1959 22.9309 58.1959 21.8077C58.1959 21.5614 58.2106 21.3102 58.2399 21.054C58.6888 19.0047 59.8015 17.5564 61.5779 16.7091C62.5149 16.2559 63.4226 16.0293 64.301 16.0293C65.1014 16.0293 65.8773 16.2116 66.6289 16.5761C68.0832 17.2855 68.8103 18.857 68.8103 21.2905L68.7957 21.9407C68.6102 22.1082 68.4199 22.192 68.2247 22.192C68.088 22.192 67.8977 22.1279 67.6537 21.9998C67.4097 21.8619 67.273 21.4383 67.2438 20.7289C67.3121 20.5023 67.3462 20.2806 67.3462 20.0639C67.3462 19.4924 67.0486 18.9456 66.4532 18.4234C65.8676 17.8914 65.1014 17.6156 64.1546 17.5959C63.2079 17.5959 62.4856 18.0392 61.9878 18.9259C61.8512 19.2215 61.7829 19.5565 61.7829 19.9309C61.7536 20.187 61.7389 20.4432 61.7389 20.6993C61.7389 22.325 62.4563 23.9851 63.8911 25.6797C65.3259 27.3743 66.258 28.6403 66.6874 29.4777C67.8294 28.8373 68.9713 28.4876 70.1133 28.4285C70.2499 28.4186 70.3768 28.4137 70.4939 28.4137C70.6204 28.4137 70.7377 28.4178 70.846 28.4259C70.8163 27.9867 70.8014 27.5393 70.8014 27.0836C70.8014 24.9063 71.1967 22.8422 71.9873 20.8915C72.7779 18.9407 74.0906 17.5614 75.9256 16.7535C76.5502 16.5072 77.2335 16.3594 77.9752 16.3101C78.4633 15.9751 78.9562 15.8077 79.4539 15.8077C80.0591 15.8077 80.7911 16.1623 81.65 16.8717C82.5089 17.5811 83.1775 19.0836 83.6558 21.3791C83.8412 22.2658 83.9339 23.2314 83.9339 24.2757C83.9339 25.9408 83.6948 27.8127 83.2165 29.8915C83.3044 29.9901 83.563 30.0492 83.9925 30.0689C84.4122 30.0689 84.8953 29.9802 85.4419 29.8029C85.9477 29.6401 86.3323 29.5384 86.5959 29.4979C86.6628 28.7142 86.8101 27.6976 87.0377 26.4482C87.35 24.724 87.8429 23.2659 88.5164 22.0737C88.9263 21.325 89.4143 20.9506 89.9804 20.9506C90.3221 20.9506 90.6929 21.0934 91.0931 21.3791C90.6637 23.7338 90.3611 25.8028 90.1854 27.5861C90.0292 29.192 89.9512 31.0098 89.9512 33.0393V33.7192C90.5173 31.1477 91.0492 28.9457 91.547 27.1132C92.7768 22.5614 94.0505 19.3299 95.3681 17.4185C95.8854 16.7289 96.5003 16.384 97.2128 16.384C97.8863 16.384 98.3499 17.0638 98.6037 18.4234C98.3792 19.5663 98.1596 20.921 97.9449 22.4875C97.4861 25.7585 97.2568 28.2856 97.2568 30.0689C97.2665 30.8078 97.3348 31.1773 97.4617 31.1773C97.5203 31.1773 97.5935 31.1083 97.6813 30.9704C98.0229 29.3546 98.3548 27.9556 98.6769 26.7733C99.4772 23.8471 100.395 21.655 101.429 20.1969C101.937 19.6451 102.557 19.3545 103.289 19.3249C103.865 19.3249 104.343 19.6353 104.723 20.256C105.006 20.719 105.148 21.4038 105.148 22.3102C105.148 22.7535 105.114 23.2511 105.046 23.8028C104.489 26.5319 104.069 29.059 103.786 31.3842C103.601 32.9211 103.508 34.1724 103.508 35.1379C103.508 36.4679 103.66 37.133 103.962 37.133C104.177 37.133 104.553 36.6847 105.089 35.7881C105.216 35.579 105.333 35.4078 105.456 35.2275L105.456 35.2274C105.866 34.6262 106.346 33.9237 107.465 31.3773C107.507 31.2808 107.557 31.1559 107.616 31.0084L107.617 31.0077C107.858 30.4041 108.252 29.4212 108.899 28.4473C109.137 27.9224 109.32 27.4696 109.567 26.8561C109.659 26.6499 109.704 26.549 109.679 26.4707C109.655 26.3957 109.567 26.3413 109.394 26.2348C108.6 25.8303 107.917 25.2267 107.421 24.4772C106.437 22.9362 105.682 21.2548 105.376 19.3765C105.11 17.8453 105.348 16.3385 106.159 14.9929C106.369 14.6789 106.574 14.4069 106.887 14.2775C107.43 14.0077 107.877 14.1525 108.191 14.6643C108.367 14.944 108.495 15.2602 108.493 15.6018C108.552 16.1225 108.569 16.6377 108.504 17.1418C108.414 18.1556 108.366 19.1749 108.407 20.1633C108.515 21.9299 108.932 23.6092 109.839 25.0972C109.848 25.1172 109.857 25.1371 109.866 25.1565C109.917 25.2704 109.961 25.3698 110.139 25.3934C110.202 25.2309 110.26 25.1104 110.318 24.9899C110.382 24.8274 110.451 24.6228 110.473 24.4548C111.121 22.4039 111.442 20.2669 111.762 18.1298C111.904 17.2832 111.976 16.4274 112.048 15.5715C112.072 15.2861 112.096 15.0008 112.122 14.7158C112.199 14.123 112.24 13.5254 112.282 12.8924L112.291 12.7723C112.315 12.2626 112.237 12.2095 111.696 12.1377C110.786 11.9742 109.881 11.7687 108.987 11.4792C107.73 11.0559 106.531 10.5121 105.552 9.57029C104.808 8.78765 104.287 7.90659 104.263 6.79221ZM113.86 11.7036C113.891 11.7051 113.922 11.7067 113.953 11.7107C115.046 11.7703 116.097 11.8244 117.176 11.6684C118.172 11.5013 119.095 11.2392 119.973 10.6719C120.622 10.2451 121.12 9.67017 121.343 8.93054C121.668 7.7343 120.712 6.62444 119.503 6.80589C119.07 6.8767 118.71 7.04257 118.339 7.29247C117.868 7.65736 117.433 8.06977 117.04 8.48772C116.846 8.6757 116.654 8.86558 116.461 9.05546C115.692 9.81492 114.922 10.5744 114.06 11.2121C113.964 11.3116 113.852 11.3906 113.733 11.4745C113.671 11.5183 113.607 11.5634 113.542 11.6135C113.66 11.6936 113.763 11.6987 113.86 11.7036ZM113.319 10.7291L113.349 10.8186C113.668 10.6472 113.914 10.3808 114.161 10.1143C115.382 8.86601 116.447 7.51159 116.969 5.78577C117.134 5.16665 117.258 4.542 117.168 3.93175C117.117 3.66864 117.061 3.44754 116.917 3.2574C116.778 3.02525 116.653 3.00868 116.428 3.1071C116.281 3.19103 116.184 3.30954 116.099 3.4126C116.079 3.43718 116.06 3.46089 116.041 3.48303C115.83 3.79703 115.615 4.15304 115.482 4.5201C114.626 6.54335 113.895 8.58316 113.319 10.7291ZM111.996 9.90992C112.121 10.162 112.252 10.4262 112.434 10.6971C112.626 9.86796 112.636 9.14272 112.646 8.41748C112.674 7.22459 112.619 6.02066 112.434 4.84217C112.274 3.79524 111.984 2.77375 111.516 1.81419C111.316 1.40295 111.063 1.07021 110.679 0.762919C110.296 0.455621 109.983 0.585007 109.834 1.0781C109.732 1.5347 109.719 1.96034 109.742 2.43351C110.007 4.94748 110.763 7.27015 111.785 9.49991C111.859 9.6322 111.927 9.76918 111.996 9.90992ZM106.726 5.11038C105.852 4.9944 104.843 5.5871 104.887 6.87505C104.894 7.47426 105.12 8.01705 105.476 8.5344C106.09 9.34249 106.904 9.92059 107.823 10.3417C108.897 10.8689 110.041 11.1916 111.201 11.3882C111.226 11.3916 111.25 11.3966 111.275 11.4016C111.374 11.4215 111.473 11.4415 111.586 11.3539C111.629 11.2906 111.586 11.2438 111.549 11.2031C111.54 11.1934 111.532 11.184 111.525 11.1748C110.574 10.023 109.853 8.73074 109.132 7.43847L109.132 7.43838C109.05 7.30982 108.972 7.18175 108.895 7.055C108.607 6.58345 108.33 6.13025 107.914 5.7382C107.578 5.39441 107.225 5.17666 106.726 5.11038ZM30.8914 40C30.4034 40 29.769 39.8177 28.9882 39.4532C28.2073 39.0985 27.285 38.6207 26.2211 38.0197C25.167 37.4286 24.4789 37.064 24.1568 36.9261C23.8347 37.8522 23.1759 38.5665 22.1803 39.069C21.585 39.3744 20.9652 39.5271 20.321 39.5271C18.3982 39.2217 17.0757 38.2266 16.3534 36.5418C16.2168 36.0788 16.1485 35.6502 16.1485 35.2561C16.1485 34.5665 16.4266 33.9211 16.983 33.3201C17.5783 32.6797 18.4519 32.3595 19.6036 32.3595C20.5894 32.3595 21.5069 32.8324 22.356 33.7783L22.7952 26.256C20.3259 25.6058 18.8423 24.4137 18.3445 22.6796C18.3055 22.4925 18.286 22.325 18.286 22.1772C18.286 21.8323 18.3885 21.5713 18.5934 21.3939C18.7984 21.2166 19.0278 21.1279 19.2815 21.1279C19.3596 21.1279 19.5011 21.1476 19.7061 21.187C19.9111 21.2264 20.0526 21.3841 20.1307 21.6599C20.16 22.4383 20.3991 23.1476 20.8481 23.788C21.3068 24.4284 21.9998 24.8718 22.927 25.1181C23.0441 21.6698 23.5175 19.1772 24.3471 17.6402C25.1182 16.2116 25.9576 15.4973 26.8653 15.4973L27.0703 15.5121C27.9585 15.6796 28.588 16.4825 28.9589 17.921C29.1248 18.5614 29.2078 19.2264 29.2078 19.9161C29.2078 20.7732 29.0223 21.857 28.6514 23.1673C28.2903 24.4678 27.2948 25.5762 25.6648 26.4925L25.533 27.7487C25.4354 28.8423 25.3134 30.1575 25.167 31.6945C25.0206 33.2315 24.8498 34.4482 24.6546 35.3448C26.7043 36.7537 28.3586 37.6946 29.6177 38.1675C29.9593 38.2956 30.257 38.3596 30.5108 38.3596C31.2233 38.3596 31.8919 38.1675 32.5165 37.7832C32.7703 37.6256 32.9704 37.5468 33.1168 37.5468C33.3315 37.5468 33.4438 37.7143 33.4535 38.0492C33.4535 38.5911 33.1851 39.0788 32.6483 39.5123C32.0627 39.8374 31.4771 40 30.8914 40ZM25.9283 24.6304C27.0703 23.4777 27.6754 22.2757 27.7437 21.0245C27.773 20.6205 27.7876 20.2511 27.7876 19.9161C27.7876 19.1969 27.7291 18.6106 27.612 18.1574C27.5729 17.9505 27.5534 17.8077 27.5534 17.7289C27.5534 17.6796 27.5583 17.655 27.568 17.655C27.4997 17.586 27.4314 17.5515 27.3631 17.5515C27.1776 17.5515 26.9824 17.8619 26.7775 18.4826C26.5822 19.1033 26.4017 20.0047 26.2358 21.187C26.0796 22.3693 25.9771 23.5171 25.9283 24.6304ZM19.4718 37.8867C19.9599 37.8867 20.4967 37.6699 21.0823 37.2364C21.6777 36.8029 21.9754 36.2019 21.9754 35.4335C21.3898 34.3497 20.5211 33.7093 19.3694 33.5123C19.223 33.4926 19.0863 33.4827 18.9594 33.4827C18.0322 33.4827 17.4222 34.0591 17.1294 35.2118C17.3831 36.6207 18.164 37.5123 19.4718 37.8867ZM2.75241 39.1281C2.60601 39.1281 2.38152 39.0985 2.07895 39.0394C1.78614 38.9803 1.57141 38.7389 1.43477 38.3153C0.478256 34.3251 0 30.5221 0 26.9063V26.4777C0 22.4284 0.531938 19.3643 1.59581 17.2855C2.04479 16.9505 2.48888 16.783 2.9281 16.783C4.11886 16.783 4.71424 17.5269 4.71424 19.0146C4.71424 19.3496 4.67032 19.6895 4.58247 20.0343C3.98709 21.719 3.62596 23.8816 3.49908 26.522C4.40679 22.3545 5.59267 19.5023 7.05672 17.9653C8.10107 16.8619 9.25767 16.3101 10.5265 16.3101C10.7217 16.3101 11.2439 16.3692 12.093 16.4875C12.9422 16.6057 13.5815 17.5762 14.0109 19.3988C14.1476 19.9703 14.2159 20.5368 14.2159 21.0984C14.2159 22.3397 13.8157 23.7141 13.0154 25.2215C12.2248 26.7289 10.7412 28.0689 8.56469 29.2413C10.3606 29.3891 11.5855 29.9162 12.2394 30.8226L12.5762 30.6452C13.8255 30.1034 15.1334 29.4236 16.4998 28.6058C16.617 28.5763 16.7243 28.5615 16.8219 28.5615C17.0269 28.5615 17.1879 28.6255 17.3051 28.7536C17.4222 28.8817 17.4807 29.0295 17.4807 29.1969C17.4807 29.2462 17.4661 29.3398 17.4368 29.4777C17.4075 29.6157 17.266 29.7191 17.0122 29.7881C15.5287 30.7339 14.133 31.5172 12.8251 32.1379C13.0008 32.6403 13.0886 33.1379 13.0886 33.6305C13.0886 34.2216 12.8983 34.931 12.5176 35.7586C12.1467 36.5763 11.4977 37.2758 10.5704 37.8571C9.75057 38.2906 8.98438 38.5074 8.27188 38.5074C7.61793 38.5074 7.01279 38.33 6.45646 37.9754C5.76347 37.4532 5.41698 36.8817 5.41698 36.2611C5.41698 36.0837 5.49994 35.7438 5.66587 35.2413C5.83179 34.729 6.34421 34.1182 7.20312 33.4088C8.06203 32.6896 8.92094 32.1576 9.77985 31.8127L9.80913 31.8718L9.83841 31.931V31.9014L9.80913 31.8718V31.798C9.30159 30.7635 8.39388 30.2462 7.086 30.2462C6.86151 30.2462 6.62726 30.261 6.38325 30.2906C5.905 30.0837 5.66587 29.7684 5.66587 29.3447C5.66587 29.1083 5.74883 28.99 5.91476 28.99C8.15963 27.4728 9.63832 25.8078 10.3508 23.9949C10.8096 22.8225 11.0389 21.8225 11.0389 20.9949C11.0389 20.5417 10.9706 20.1427 10.834 19.7978C10.6388 19.3151 10.3557 19.0737 9.98481 19.0737C9.61392 19.0737 9.01854 19.4432 8.19867 20.1821C7.37881 20.921 6.29541 23.3299 4.94849 27.4088C4.35311 29.9802 4.05542 33.3103 4.05542 37.399V38.3448L4.07006 38.4335C4.07006 38.6699 3.89925 38.8522 3.55764 38.9803C3.30387 39.0788 3.03546 39.1281 2.75241 39.1281ZM8.09619 37.3251C8.22307 37.3251 8.45244 37.2955 8.78429 37.2364C9.11614 37.1773 9.47728 36.8916 9.86769 36.3793C10.2288 35.7881 10.4094 35.1231 10.4094 34.3842C10.4094 33.9704 10.3508 33.532 10.2337 33.0689C9.83353 33.2561 9.28695 33.5911 8.59397 34.0738C7.91074 34.5566 7.40809 35.0985 7.086 35.6995C6.98839 35.9556 6.93959 36.1822 6.93959 36.3793C6.93959 36.6453 7.03231 36.8571 7.21776 37.0148C7.45201 37.2216 7.74482 37.3251 8.09619 37.3251ZM35.0347 37.532C35.2397 37.5517 35.4397 37.5616 35.6349 37.5616C37.3332 37.5616 38.6655 36.9901 39.6318 35.8473C40.725 34.5862 41.5253 33.064 42.0328 31.2807L42.516 31.2955C44.0484 31.2955 45.327 30.9112 46.3518 30.1428L46.3811 29.8915C46.3811 29.6157 46.2737 29.4777 46.059 29.4777C45.815 29.4777 45.3562 29.5861 44.6828 29.8029C44.1362 29.9802 43.6531 30.0689 43.2334 30.0689C42.8039 30.0492 42.5453 29.9901 42.4574 29.8915C42.9357 27.8127 43.1748 25.9408 43.1748 24.2757C43.1748 23.2314 43.0821 22.2658 42.8966 21.3791C42.4184 19.0836 41.7498 17.5811 40.8909 16.8717C40.032 16.1623 39.3 15.8077 38.6948 15.8077C38.197 15.8077 37.7041 15.9751 37.2161 16.3101C36.4743 16.3594 35.7911 16.5072 35.1665 16.7535C33.3315 17.5614 32.0187 18.9407 31.2282 20.8915C30.4376 22.8422 30.0423 24.9063 30.0423 27.0836C30.0423 29.6551 30.5157 31.9654 31.4624 34.0147C32.3116 35.8768 33.5023 37.0492 35.0347 37.532ZM38.1092 35.2118C37.4943 35.3694 37.1039 35.4482 36.938 35.4482C36.0888 35.4482 35.3519 34.8867 34.7272 33.7635C33.9757 32.4137 33.5267 31.0443 33.3803 29.6551C33.2339 28.2561 33.1607 27.2265 33.1607 26.5664C33.1607 25.1181 33.3364 23.6797 33.6878 22.2511C34.1953 20.1821 35.1811 18.5614 36.6451 17.389C36.1669 18.7978 35.9278 20.2313 35.9278 21.6895C35.9278 22.7929 36.0644 23.9161 36.3377 25.059C36.9819 27.6895 38.4703 29.6255 40.803 30.8669C39.6318 33.6059 38.7339 35.0541 38.1092 35.2118ZM42.0182 24.4974C42.0182 26.3201 41.7449 27.99 41.1983 29.5073C39.9978 29.0344 39.1243 27.9112 38.5777 26.1378C38.0409 24.3644 37.7725 22.8668 37.7725 21.6452C37.7725 20.4432 37.9481 19.2215 38.2995 17.9801C38.6997 17.9801 39.0023 18.2412 39.2072 18.7634C39.4122 19.2757 39.5684 19.8126 39.6757 20.3742C40.2613 20.2363 40.5542 19.9456 40.5542 19.5023C40.5346 18.99 40.3394 18.4826 39.9685 17.9801C39.6074 17.4776 39.2707 17.1673 38.9583 17.0491C39.9441 17.384 40.6957 18.2954 41.213 19.7831C41.74 21.2708 42.0036 22.586 42.0036 23.7289L42.0182 24.4974ZM49.3238 39.3645C48.5039 39.3645 47.7036 39.1379 46.9228 38.6847C46.2688 38.1428 45.9419 37.5369 45.9419 36.867C45.9419 36.601 46.059 36.1477 46.2932 35.5073C46.5372 34.8669 47.157 34.0788 48.1526 33.1428C49.1481 32.2068 50.2803 31.3645 51.5492 30.6157L46.9228 25.1772C46.2395 24.054 45.8979 22.9309 45.8979 21.8077C45.8979 21.5614 45.9126 21.3102 45.9419 21.054C46.3908 19.0047 47.5035 17.5564 49.2799 16.7091C50.2169 16.2559 51.1246 16.0293 52.003 16.0293C52.8034 16.0293 53.5793 16.2116 54.3309 16.5761C55.7851 17.2855 56.5123 18.857 56.5123 21.2905L56.4976 21.9407C56.3122 22.1082 56.1219 22.192 55.9267 22.192C55.79 22.192 55.5997 22.1279 55.3557 21.9998C55.1117 21.8619 54.975 21.4383 54.9458 20.7289C55.0141 20.5023 55.0482 20.2806 55.0482 20.0639C55.0482 19.4924 54.7505 18.9456 54.1552 18.4234C53.5695 17.8914 52.8034 17.6156 51.8566 17.5959C50.9099 17.5959 50.1876 18.0392 49.6898 18.9259C49.5532 19.2215 49.4849 19.5565 49.4849 19.9309C49.4556 20.187 49.4409 20.4432 49.4409 20.6993C49.4409 22.325 50.1583 23.9851 51.5931 25.6797C53.0279 27.3743 53.96 28.6403 54.3894 29.4777C55.5314 28.8373 56.6733 28.4876 57.8153 28.4285C57.9519 28.4186 58.0788 28.4137 58.1959 28.4137C59.0744 28.4137 59.5136 28.6107 59.5136 29.0048C59.5136 29.2807 59.3574 29.596 59.0451 29.9506C58.7328 29.8718 58.4107 29.8324 58.0788 29.8324C57.542 29.8324 56.8929 29.9753 56.1316 30.261C55.3801 30.5369 54.9994 30.7536 54.9897 30.9112C55.3215 31.7191 55.4875 32.4975 55.4875 33.2462C55.4875 34.1132 55.1702 35.1182 54.5358 36.2611C53.9112 37.4039 52.8326 38.2956 51.3003 38.936C50.6268 39.2217 49.968 39.3645 49.3238 39.3645ZM48.7089 37.6059C49.3043 37.6059 49.9094 37.335 50.5243 36.7931C51.1392 36.2512 51.6272 35.5714 51.9884 34.7536C52.2226 34.2019 52.3397 33.6699 52.3397 33.1576C52.3397 32.9113 52.3105 32.6699 52.2519 32.4334C51.5882 32.8669 50.8562 33.4679 50.0558 34.2364C49.2555 35.0049 48.6552 35.7142 48.2551 36.3645C48.0989 36.6404 48.0208 36.867 48.0208 37.0443C48.0208 37.399 48.2502 37.5862 48.7089 37.6059ZM62.8223 36.7931C62.2074 37.335 61.6023 37.6059 61.0069 37.6059C60.5482 37.5862 60.3188 37.399 60.3188 37.0443C60.3188 36.867 60.3969 36.6404 60.5531 36.3645C60.9532 35.7142 61.5535 35.0049 62.3538 34.2364C63.1542 33.4679 63.8862 32.8669 64.5499 32.4334C64.6085 32.6699 64.6378 32.9113 64.6378 33.1576C64.6378 33.6699 64.5206 34.2019 64.2864 34.7536C63.9253 35.5714 63.4372 36.2512 62.8223 36.7931ZM77.6971 35.4482C77.863 35.4482 78.2534 35.3694 78.8683 35.2118C79.493 35.0541 80.3909 33.6059 81.5622 30.8669C79.2294 29.6255 77.741 27.6895 77.0968 25.059C76.8235 23.9161 76.6869 22.7929 76.6869 21.6895C76.6869 20.2313 76.926 18.7978 77.4043 17.389C75.9402 18.5614 74.9544 20.1821 74.4469 22.2511C74.0955 23.6797 73.9198 25.1181 73.9198 26.5664C73.9198 27.2265 73.993 28.2561 74.1394 29.6551C74.2858 31.0443 74.7348 32.4137 75.4864 33.7635C76.111 34.8867 76.8479 35.4482 77.6971 35.4482ZM81.9575 29.5073C82.504 27.99 82.7773 26.3201 82.7773 24.4974L82.7627 23.7289C82.7627 22.586 82.4992 21.2708 81.9721 19.7831C81.4548 18.2954 80.7033 17.384 79.7175 17.0491C80.0298 17.1673 80.3665 17.4776 80.7277 17.9801C81.0985 18.4826 81.2938 18.99 81.3133 19.5023C81.3133 19.9456 81.0205 20.2363 80.4348 20.3742C80.3275 19.8126 80.1713 19.2757 79.9663 18.7634C79.7614 18.2412 79.4588 17.9801 79.0586 17.9801C78.7073 19.2215 78.5316 20.4432 78.5316 21.6452C78.5316 22.8668 78.8 24.3644 79.3368 26.1378C79.8834 27.9112 80.7569 29.0344 81.9575 29.5073Z" fill="#030B08"/>
</svg>
