<svg width="25" height="25" viewBox="0 0 25 25" fill="none" xmlns="http://www.w3.org/2000/svg">
<path d="M18.4337 12.0257L9.94588 6.86543C9.18391 6.44104 8.2242 6.986 8.2242 7.87819V17.9093C8.2242 18.7966 9.17908 19.3464 9.94588 18.922L18.4337 14.0512C19.2246 13.6123 19.2246 12.4693 18.4337 12.0257ZM24.8141 12.8937C24.8141 6.28672 19.4609 0.933594 12.8539 0.933594C6.24692 0.933594 0.893799 6.28672 0.893799 12.8937C0.893799 19.5007 6.24692 24.8539 12.8539 24.8539C19.4609 24.8539 24.8141 19.5007 24.8141 12.8937ZM3.20866 12.8937C3.20866 7.56472 7.52492 3.24846 12.8539 3.24846C18.1829 3.24846 22.4992 7.56472 22.4992 12.8937C22.4992 18.2227 18.1829 22.539 12.8539 22.539C7.52492 22.539 3.20866 18.2227 3.20866 12.8937Z" fill="#6933DC"/>
</svg>
