<svg width="25" height="25" viewBox="0 0 25 25" fill="none" xmlns="http://www.w3.org/2000/svg">
<path d="M24.4401 12.893C24.4401 6.49248 19.2543 1.30664 12.8537 1.30664C6.45317 1.30664 1.26733 6.49248 1.26733 12.893C1.26733 19.2936 6.45317 24.4794 12.8537 24.4794C19.2543 24.4794 24.4401 19.2936 24.4401 12.893ZM3.50986 12.893C3.50986 7.73054 7.69123 3.54917 12.8537 3.54917C18.0162 3.54917 22.1976 7.73054 22.1976 12.893C22.1976 18.0555 18.0162 22.2369 12.8537 22.2369C7.69123 22.2369 3.50986 18.0555 3.50986 12.893ZM17.3388 9.15548V16.6306C17.3388 17.0417 17.0024 17.3781 16.5913 17.3781H9.11617C8.70504 17.3781 8.36866 17.0417 8.36866 16.6306V9.15548C8.36866 8.74435 8.70504 8.40797 9.11617 8.40797H16.5913C17.0024 8.40797 17.3388 8.74435 17.3388 9.15548Z" fill="#AF0007"/>
</svg>
