<svg width="25" height="25" viewBox="0 0 25 25" fill="none" xmlns="http://www.w3.org/2000/svg">
<path d="M12.8539 24.8535C6.24837 24.8535 0.893799 19.4989 0.893799 12.8934C0.893799 6.28782 6.24837 0.93325 12.8539 0.93325C19.4595 0.93325 24.8141 6.28782 24.8141 12.8934C24.8141 19.4989 19.4595 24.8535 12.8539 24.8535ZM12.8539 4.01974C7.94979 4.01974 3.98028 7.98828 3.98028 12.8934C3.98028 17.7975 7.94883 21.767 12.8539 21.767C17.7581 21.767 21.7276 17.7985 21.7276 12.8934C21.7276 7.98925 17.759 4.01974 12.8539 4.01974ZM12.8539 19.0664C9.44481 19.0664 6.68096 16.3025 6.68096 12.8934C6.68096 9.48426 9.44481 6.72041 12.8539 6.72041C16.2631 6.72041 19.0269 9.48426 19.0269 12.8934C19.0269 16.3025 16.2631 19.0664 12.8539 19.0664ZM12.8539 9.8069C11.152 9.8069 9.76745 11.1915 9.76745 12.8934C9.76745 14.5953 11.152 15.9799 12.8539 15.9799C14.5558 15.9799 15.9404 14.5953 15.9404 12.8934C15.9404 11.1915 14.5558 9.8069 12.8539 9.8069Z" fill="#207A41"/>
</svg>
