<svg width="25" height="25" viewBox="0 0 25 25" fill="none" xmlns="http://www.w3.org/2000/svg">
<path d="M21.2236 5.75H4.72363" stroke="#4C4E4D" stroke-width="2" stroke-linecap="round" stroke-linejoin="round"/>
<path d="M10.7236 10.25V16.25" stroke="#4C4E4D" stroke-width="2" stroke-linecap="round" stroke-linejoin="round"/>
<path d="M15.2236 10.25V16.25" stroke="#4C4E4D" stroke-width="2" stroke-linecap="round" stroke-linejoin="round"/>
<path d="M19.7236 5.75V20C19.7236 20.1989 19.6446 20.3897 19.504 20.5303C19.3633 20.671 19.1725 20.75 18.9736 20.75H6.97363C6.77472 20.75 6.58396 20.671 6.4433 20.5303C6.30265 20.3897 6.22363 20.1989 6.22363 20V5.75" stroke="#4C4E4D" stroke-width="2" stroke-linecap="round" stroke-linejoin="round"/>
<path d="M16.7236 5.75V4.25C16.7236 3.85218 16.5656 3.47064 16.2843 3.18934C16.003 2.90804 15.6215 2.75 15.2236 2.75H10.7236C10.3258 2.75 9.94428 2.90804 9.66297 3.18934C9.38167 3.47064 9.22363 3.85218 9.22363 4.25V5.75" stroke="#4C4E4D" stroke-width="2" stroke-linecap="round" stroke-linejoin="round"/>
</svg>
